<svg width="484" height="618" viewBox="0 0 484 618" fill="none" xmlns="http://www.w3.org/2000/svg">
<mask id="mask0_302_1900" style="mask-type:luminance" maskUnits="userSpaceOnUse" x="299" y="0" width="185" height="388">
<path d="M299.23 0H483.585V387.135H299.23V0Z" fill="white"/>
</mask>
<g mask="url(#mask0_302_1900)">
<path fill-rule="evenodd" clip-rule="evenodd" d="M482.501 20.6274V32.9521C481.986 27.1765 481.212 20.6274 479.579 17.8599C474.491 21.6587 472.927 18.9772 468.63 20.3696C470.005 24.8559 469.919 27.2624 472.497 31.1472C473.975 33.2099 474.405 38.7276 475.093 42.0108C476.812 49.4193 476.554 56.656 477.843 64.1505C478.531 68.2071 477.843 71.0605 478.617 75.2719C480.696 86.1354 481.04 105.714 481.728 108.206C481.986 107.605 482.243 106.831 482.501 105.886V115.374C481.126 118.64 478.788 122.267 474.921 126.839C477.155 129.332 479.923 132.873 482.501 136.569V139.938C480.095 136.139 477.07 132.271 473.013 128.129L469.833 129.332C471.122 133.99 476.984 136.053 482.501 152.348V157.007C478.445 145.885 473.099 135.193 467.323 130.793C464.659 128.644 462.407 129.16 459.399 127.527C456.889 126.049 454.397 124.674 451.905 123.298C441.041 117.093 424.918 94.9363 420.517 84.1587C417.492 76.5782 403.362 33.8975 405.941 28.4657C409.31 28.8954 411.286 31.3191 415.085 29.4111C415.687 25.6295 411.802 19.2523 412.421 14.594C415.085 14.1643 416.289 16.0551 418.97 14.2502C421.548 12.4281 421.978 10.1936 423.714 8.0449C426.035 8.38869 427.926 9.24815 430.349 8.56058C434.131 7.42609 432.67 6.05096 434.836 3.81636C437.414 3.81636 441.127 5.19149 444.049 4.41798C447.59 3.55852 449.567 -1.35759 452.334 -2.1311C456.889 0.962957 460.173 17.5162 463.714 19.4242L466.55 16.227C475.694 19.8539 472.927 19.1663 480.353 14.4221C481.212 15.2816 481.9 17.6021 482.501 20.6274ZM482.501 227.173V229.854C479.132 227.345 475.351 224.938 470.349 222.016C465.175 218.905 460.344 214.59 455.342 211.238C445.424 204.5 435.437 197.436 427.41 188.48C424.058 184.681 420.861 179.851 417.681 175.794C413.366 170.448 411.201 167.956 406.113 163.384L401.815 167.612C409.739 175.451 416.976 182.532 423.8 191.488C433.271 204.157 438.188 205.033 449.309 213.129C463.542 223.563 472.669 229.253 482.501 236.833V239.773C477.843 236.489 473.443 233.997 470.263 233.12C466.55 232.261 447.59 235.028 424.144 229.167C420.775 228.307 418.282 227.345 414.742 226.657C400.956 224.165 391.811 225.196 378.627 231.487C374.313 233.481 363.793 236.919 360.939 239.085C363.793 239.944 367.42 239.257 370.342 239.085C376.719 238.552 390.952 240.374 397.157 241.405C428.888 246.923 440.353 242.953 468.183 245.118C474.663 245.634 478.703 246.579 482.501 248.126V250.378C479.751 249.244 477.07 248.298 475.694 248.126C469.489 247.181 464.487 246.923 458.454 246.322C452.678 245.72 446.731 246.408 440.955 246.236C425.605 245.548 423.456 246.064 406.302 244.431C400.509 243.898 394.647 242.093 388.958 241.577C381.205 240.89 361.111 238.999 354.906 243.124C362.418 245.892 365.426 244.775 373.109 250.378C378.369 254.16 385.692 259.935 391.553 262.187C396.04 263.82 395.524 264.25 400.595 264.766C408.192 265.625 418.626 266.227 425.949 264.68C441.557 261.414 461.891 250.722 482.501 253.73V256.326C471.466 254.762 454.569 257.357 444.651 261.225C425.863 268.564 423.542 268.135 404.651 267.275C395.524 266.828 391.124 265.023 383.44 260.021C372.851 253.043 364.222 245.118 351.124 244.946C347.411 244.946 343.613 247.267 341.378 245.548C342.839 243.21 346.638 243.382 349.13 242.437C351.726 241.491 354.562 239.944 357.072 238.827C362.332 236.232 367.334 234.685 372.594 232.433C392.842 223.649 399.907 221.139 421.291 226.485C427.066 227.964 432.068 228.995 437.844 230.026C443.619 230.972 465.862 232.519 470.52 230.8C463.714 226.829 456.803 221.139 450.34 216.584C443.619 211.84 437.758 207.955 431.295 202.867C422.924 196.146 414.742 180.453 400.784 169.589C395.18 177.444 383.973 177.53 375.172 177.53C349.216 177.53 306.037 145.799 303.012 126.152C309.475 120.892 306.982 115.632 307.24 113.638C309.733 112.865 309.475 114.154 311.297 112.521L305.178 105.714C306.896 103.29 308.615 104.253 310.953 100.97C313.274 97.7725 312.242 96.7412 313.36 94.5925C317.072 95.366 317.674 96.5693 321.456 93.6471C325.684 90.364 324.911 90.1921 326.973 86.0495C336.892 84.1587 333.196 79.5004 337.235 74.8421C341.722 76.6642 345.521 79.2426 349.56 82.01C353.015 77.6096 351.554 77.008 353.703 73.8967C359.736 75.6328 393.358 108.636 398.016 115.46C405.253 126.049 409.739 136.998 408.364 150.371C406.989 163.212 407.419 162.009 413.882 167.784C420.345 173.56 426.121 189.253 450.083 205.463C458.626 211.324 467.065 217.788 476.038 222.876C478.359 224.079 480.439 225.626 482.501 227.173ZM482.501 269.596V271.573C474.663 269.94 459.915 276.231 453.795 280.03C443.705 286.321 437.242 298.646 433.529 309.595C430.091 319.943 428.269 329.603 428.802 340.467C429.146 347.618 430.607 364.686 435.179 370.376C436.812 365.03 432.756 358.137 433.186 352.448C435.437 324.429 434.389 332.869 443.276 307.79C446.043 299.849 445.699 300.364 447.676 301.155C447.676 301.413 442.846 314.339 442.33 315.628C440.525 319.685 438.102 326.062 437.242 330.377C435.953 336.41 434.045 353.393 436.039 358.911C439.477 352.534 440.783 347.016 441.729 339.848C443.19 328.211 450.168 310.884 461.118 303.648C463.885 301.843 475.007 296.239 477.929 295.294C477.843 293.987 478.273 295.466 477.499 293.472C476.812 291.495 475.694 290.893 474.491 290.034L466.12 292.784C461.376 289.071 466.464 281.491 470.005 279.084C473.529 276.746 478.788 275.457 482.501 272.965V274.942C478.015 277.176 471.724 280.459 470.263 281.834C472.841 282.522 474.835 281.147 477.585 280.803C479.046 280.631 480.696 280.545 482.501 280.631V282.35C479.218 282.264 475.866 282.866 471.724 284.086C469.489 284.688 465.862 284.344 466.55 289.776C469.317 290.635 472.325 287.266 474.577 287.782C477.929 288.384 478.187 292.526 482.243 293.643C482.329 293.729 482.415 293.729 482.501 293.729V296.411C477.07 297.442 468.544 301.929 464.057 304.679C456.374 309.337 451.561 315.8 448.278 324.086C443.533 336.152 444.565 334.158 442.76 345.538C441.385 354.854 435.781 358.567 437.758 366.921C439.391 373.814 435.953 370.548 437.414 376.495C438.016 378.816 440.611 384.763 440.439 386.414C437.672 387.789 436.984 381.412 436.125 378.644C432.842 368.915 428.441 358.825 427.496 348.477C425.605 327.695 431.123 299.849 445.596 284.172C453.022 276.145 469.747 268.736 482.501 269.596ZM306.896 124.502L317.416 134.162C315.68 131.309 309.905 124.158 307.67 122.955L309.647 117.695C313.188 120.806 321.026 134.936 325.426 134.936C325.856 133.045 323.536 132.013 321.989 130.191C319.307 127.269 312.242 118.296 310.867 115.116C315.508 113.81 315.164 114.841 318.276 110.2L327.764 119.07C325.083 121.494 325.426 118.554 323.536 121.15L358.533 153.637C366.457 159.946 367.935 162.524 377.407 167.354C385.52 171.583 391.467 168.644 396.641 170.62C392.241 173.818 393.272 173.216 388.184 172.099C382.409 170.878 378.541 171.583 371.201 168.558C368.709 167.612 365.684 165.275 363.105 166.237C368.279 172.185 384.746 172.442 389.044 173.732C374.398 179.765 354.992 171.927 342.066 164.415C330.944 157.952 316.471 146.831 309.131 136.139C306.467 132.271 304.215 128.816 306.896 124.502ZM461.634 32.3504C460.259 29.8408 458.368 24.77 458.282 22.0885C459.055 21.7447 465.604 20.2836 467.237 19.8539L469.833 29.1532C467.667 30.3737 464.057 32.2645 461.634 32.3504ZM460.001 33.4677L454.311 33.2099L451.028 36.7509C449.825 34.585 448.879 29.497 448.45 27.0046C450.684 25.7154 448.793 27.5203 455.256 23.5496C456.632 22.6042 455.514 23.1198 456.546 22.862C457.68 25.7154 460.259 30.5456 460.001 33.4677ZM442.674 67.0039C444.307 63.7207 435.867 46.6518 437.156 41.8389C438.359 41.5638 442.674 41.7529 444.307 41.7529C446.215 45.5346 449.223 63.5488 449.653 56.9138C449.825 54.4214 446.988 43.3 446.301 41.1341L452.248 37.9541C452.334 37.9541 453.538 37.4384 453.538 37.4384L455.171 37.2665C455.085 38.5557 457.079 45.6205 457.422 47.7004C458.024 51.3961 459.227 54.8511 459.141 58.203C461.806 57.4295 459.829 53.1322 458.54 47.6144C457.938 44.9329 456.202 37.6103 456.632 35.3585C462.407 36.2352 465.604 32.0066 470.435 31.6629C475.437 46.9097 475.093 62.3456 477.07 77.9534C478.015 85.6198 478.617 93.1314 479.218 100.97C479.923 109.857 479.923 118.554 473.185 125.447C471.81 121.923 476.038 111.575 471.552 106.144C470.52 109.066 472.583 112.091 471.982 116.32C470.778 125.189 473.271 122.697 469.231 127.011C463.542 122.095 459.485 111.06 456.03 108.808C458.797 115.03 465.862 126.668 466.034 127.011C454.053 129.074 441.986 98.6492 439.563 89.5905C437.328 81.5803 424.316 52.5993 424.746 47.6144C426.55 47.1675 427.926 47.2535 429.92 46.394C432.154 45.4486 433.1 44.3313 435.265 43.8156C438.188 47.8723 440.353 64.4255 442.674 67.0039ZM443.705 113.294C432.928 103.737 422.924 86.3933 418.712 72.7794C416.289 65.113 405.769 36.0633 408.192 31.3191L411.372 31.5769C413.624 35.4445 413.538 46.3081 416.632 52.0836C417.492 50.3647 414.312 38.9855 413.882 32.1785L423.199 28.8954C424.058 30.7175 425.347 32.9521 425.003 34.671C427.668 33.9834 425.261 29.9268 424.574 27.6922C427.754 26.7468 427.668 28.1219 429.92 27.3484C432.498 26.4889 431.467 25.4576 434.217 24.5809C435.867 26.6608 436.297 29.497 437.5 32.0926C438.703 34.4991 440.353 37.4384 440.096 40.1028L435.781 38.3838C433.529 41.7529 434.492 42.4405 430.177 44.2454C425.863 46.0502 426.808 44.9329 423.199 44.2454C421.462 46.5659 422.064 46.48 422.752 49.0755C424.66 56.1403 426.98 60.9705 429.404 68.2071L434.922 82.1819C437.5 88.4732 438.875 94.5066 441.213 100.97C443.619 107.519 448.278 113.208 451.114 119.414C448.45 119.242 448.278 117.093 446.645 114.67C440.869 105.714 434.836 96.4833 431.638 86.3073C430.951 84.0727 428.699 76.4064 427.41 75.3578C426.55 77.9534 431.982 90.9656 433.615 94.3347C436.984 101.829 443.619 110.114 443.705 113.294ZM418.454 28.7235C415.687 27.6922 414.398 18.8053 414.484 17.0005C419.744 15.7113 419.915 17.1724 423.886 11.6546C425.433 13.6486 426.207 18.5475 427.84 19.682C428.699 17.0864 425.519 14.0783 426.379 10.2795C429.404 10.8811 431.982 9.50599 434.75 8.90436C436.297 11.4827 435.781 15.0237 438.102 15.3675C438.961 11.7406 435.781 9.59193 436.726 6.1369L443.533 6.39474C446.645 11.6546 443.533 10.3654 446.387 10.7092L445.699 6.05096C447.504 4.58987 450.942 1.22079 452.506 0.877007C454.139 3.38663 460.516 16.8286 459.829 20.1117L455.858 17.8599C452.764 19.682 457.25 19.4242 449.997 24.8559L446.215 23.7215C445.871 24.8559 448.278 35.6164 448.793 37.5244L443.791 40.0168C440.353 36.579 437.156 23.7215 434.578 21.5728C432.326 22.0885 431.381 24.6669 428.974 25.8013C425.175 26.6608 424.316 23.8933 421.72 23.5496C420.345 25.8013 421.892 27.1765 418.454 28.7235ZM348.701 129.848C347.927 125.361 338.095 118.64 334.571 115.374C341.12 110.544 338.009 117.781 345.349 103.376C350.866 107.863 366.113 125.017 367.592 125.275C368.021 123.47 359.908 115.374 358.275 113.638C354.218 109.513 350.523 105.714 346.294 101.657C351.124 98.3054 353.703 96.6552 356.384 90.7937C364.48 97.085 384.145 117.437 391.295 125.533C395.352 130.105 401.042 137.961 402.847 143.479C404.308 147.948 405.941 159.069 403.448 163.212C401.729 160.376 402.245 158.554 401.386 156.147C400.337 153.551 397.673 152.176 396.899 149.168L395.094 149.684C397.759 154.686 401.128 156.061 400.423 162.352L394.218 157.178C395.008 159.843 398.36 162.524 400.595 164.243C395.18 167.011 386.293 159.069 383.182 160.204C384.574 163.727 395.18 165.807 399.048 166.753C395.954 169.933 384.832 168.3 380.948 167.011C373.969 164.501 367.506 159.585 362.074 154.342C356.384 148.739 349.56 144.166 344.042 138.477C338.886 133.045 332.663 127.355 327.145 122.095C329.827 119.5 330.257 119.929 333.007 116.234L348.701 129.848ZM351.64 83.729C351.898 81.7522 353.531 78.4691 354.734 76.4923C367.248 86.1354 380.69 99.2508 391.467 110.63C395.18 114.584 401.471 123.814 403.276 128.472C404.909 132.615 407.591 143.479 406.198 147.518C404.823 145.541 404.05 139.68 397.93 130.879C392.585 123.213 375.516 106.745 368.193 98.907L351.64 83.729ZM332.921 95.5379C335.516 93.2174 338.439 93.0455 341.722 89.4186C343.613 91.0516 345.435 93.905 347.669 92.9596L342.753 87.5278C349.044 84.3306 350.265 83.4711 354.992 89.3326C350.351 99.3367 345.435 98.907 342.839 100.884C343.183 105.456 343.097 104.94 340.003 109.066L332.921 95.5379ZM329.311 88.1294C330.514 87.184 334.227 84.9322 335.259 84.5884C336.806 86.0495 337.149 87.2699 338.8 87.3559C337.493 85.1041 337.407 84.9322 335.259 83.4711L338.267 77.4377C341.378 79.6723 343.613 80.2739 347.154 83.2992C344.919 85.19 344.128 85.0181 341.55 85.0181C339.831 87.6997 341.12 88.0434 337.751 90.6218C336.29 91.7391 334.657 92.4439 332.921 93.3033L329.311 88.1294ZM328.71 89.9343L330.944 91.8251C330.944 91.997 330.858 92.1689 330.858 92.1689L330.686 92.9596C330.686 93.0455 330.6 93.2174 330.6 93.3033C330.428 94.3347 338.095 109.513 338.8 110.716C335.431 113.638 335.001 112.435 331.46 113.638C330.514 115.976 331.546 115.89 329.483 117.523C323.708 115.718 322.504 109.427 316.815 108.12C316.471 110.63 316.213 110.458 314.563 112.693L308.186 106.23C309.389 105.284 310.867 104.253 311.899 103.118C314.047 100.454 312.586 100.368 315.079 99.2508C317.674 100.368 320.768 102.861 322.332 105.284C323.192 102.689 318.19 99.5086 316.213 97.8585C319.651 96.2255 318.963 98.1335 322.762 94.8504C323.708 93.9909 324.739 93.1314 325.684 92.2548L328.71 89.9343Z" fill="#B65145"/>
</g>
<path fill-rule="evenodd" clip-rule="evenodd" d="M364.825 111.145C364.654 108.893 361.903 106.487 360.425 104.682C358.964 102.946 355.87 99.0782 353.876 101.141C355.423 102.602 364.052 110.887 364.825 111.145Z" fill="#B65145"/>
<path fill-rule="evenodd" clip-rule="evenodd" d="M395.783 255.535C395.096 254.418 388.787 248.47 387.756 248.384C387.928 250.636 393.703 255.105 395.783 255.535Z" fill="#B65145"/>
<path fill-rule="evenodd" clip-rule="evenodd" d="M405.682 255.277C403.791 253.73 399.992 249.931 397.844 249.673C398.445 251.495 403.533 255.363 405.682 255.277Z" fill="#B65145"/>
<path fill-rule="evenodd" clip-rule="evenodd" d="M420.432 234.169C419.572 232.003 419.057 232.776 417.321 232.089C414.399 230.885 416.289 229.94 413.711 230.971C414.57 233.395 414.227 231.143 416.633 232.518C418.627 233.653 417.407 234.426 420.432 234.169Z" fill="#B65145"/>
<path fill-rule="evenodd" clip-rule="evenodd" d="M360.767 141.055C361.3 139.164 358.618 137.875 356.899 136.912C357.501 139.164 358.532 139.765 360.767 141.055Z" fill="#B65145"/>
<path fill-rule="evenodd" clip-rule="evenodd" d="M398.963 254.589C398.018 252.011 394.477 249.157 391.727 248.212L398.963 254.589Z" fill="#B65145"/>
<path fill-rule="evenodd" clip-rule="evenodd" d="M334.486 144.423C334.744 142.515 332.836 141.398 331.031 141.656C331.719 143.392 332.75 144.08 334.486 144.423Z" fill="#B65145"/>
<path fill-rule="evenodd" clip-rule="evenodd" d="M474.32 25.887C474.32 25.8011 474.492 25.8011 474.492 25.887H474.578C474.578 25.887 474.492 27.2622 474.32 25.887ZM475.867 27.2622C474.922 24.7697 475.867 24.3228 474.063 23.7212C473.977 25.1995 473.788 27.7778 475.867 27.2622Z" fill="#B65145"/>
<path fill-rule="evenodd" clip-rule="evenodd" d="M441.902 27.2622C442.504 25.1995 442.332 23.3775 439.994 23.2056L441.902 27.2622Z" fill="#B65145"/>
<path fill-rule="evenodd" clip-rule="evenodd" d="M378.008 134.333C377.235 132.357 377.235 131.927 375.258 132.958C376.375 134.419 376.117 134.677 378.008 134.333Z" fill="#B65145"/>
<path fill-rule="evenodd" clip-rule="evenodd" d="M373.798 130.535C374.743 128.3 374.055 127.011 371.89 128.73L373.798 130.535Z" fill="#B65145"/>
<path fill-rule="evenodd" clip-rule="evenodd" d="M328.883 139.25C328.453 137.531 328.883 137.617 326.803 137.875C326.889 139.508 326.975 139.765 328.883 139.25Z" fill="#B65145"/>
<path fill-rule="evenodd" clip-rule="evenodd" d="M353.961 134.763L353.617 132.271L351.469 133.388L353.961 134.763Z" fill="#B65145"/>
<path fill-rule="evenodd" clip-rule="evenodd" d="M451.732 67.6908C452.248 65.9718 452.248 64.7686 450.34 64.4248L451.732 67.6908Z" fill="#B65145"/>
<path fill-rule="evenodd" clip-rule="evenodd" d="M336.807 110.372C336.205 108.722 336.291 108.894 334.486 109.341C335.088 110.716 335.26 110.63 336.807 110.372Z" fill="#B65145"/>
<path fill-rule="evenodd" clip-rule="evenodd" d="M328.109 108.636C326.201 107.776 327.422 107.604 325.514 108.893C327.508 109.856 326.459 110.028 328.109 108.636Z" fill="#B65145"/>
<path fill-rule="evenodd" clip-rule="evenodd" d="M454.914 105.37C455.086 103.737 455.774 103.909 453.453 103.909C453.883 105.972 453.023 105.026 454.914 105.37Z" fill="#B65145"/>
<path fill-rule="evenodd" clip-rule="evenodd" d="M445.51 79.8436C446.215 78.4684 445.871 77.0933 444.307 76.7495L445.51 79.8436Z" fill="#B65145"/>
<path fill-rule="evenodd" clip-rule="evenodd" d="M440.527 19.9395C439.908 18.4613 440.097 18.7191 438.705 19.166C439.221 20.799 438.705 20.8849 440.527 19.9395Z" fill="#B65145"/>
<path fill-rule="evenodd" clip-rule="evenodd" d="M419.228 58.7355C419.142 56.8275 419.142 57.4291 417.853 57.0853C417.939 58.7355 417.406 58.7355 419.228 58.7355Z" fill="#B65145"/>
<path fill-rule="evenodd" clip-rule="evenodd" d="M330.946 111.575C329.141 110.887 330.258 110.544 328.453 111.833C330.258 112.692 329.227 112.778 330.946 111.575Z" fill="#B65145"/>
<path fill-rule="evenodd" clip-rule="evenodd" d="M453.195 98.047C451.563 97.686 452.938 96.9984 451.391 98.6486C452.938 99.594 452.766 99.8518 453.195 98.047Z" fill="#B65145"/>
<path fill-rule="evenodd" clip-rule="evenodd" d="M471.21 100.883C470.006 102.688 470.522 101.313 471.124 102.688C472.757 101.743 472.499 102.086 471.21 100.883Z" fill="#B65145"/>
<path fill-rule="evenodd" clip-rule="evenodd" d="M428.355 39.3288C428.527 37.4379 428.802 38.2974 426.979 37.8677C427.581 40.3601 427.065 39.1569 428.355 39.3288Z" fill="#B65145"/>
<path fill-rule="evenodd" clip-rule="evenodd" d="M444.566 73.2092C443.964 70.8027 444.737 72.2638 443.104 72.0919C443.706 73.6389 442.847 73.467 444.566 73.2092Z" fill="#B65145"/>
<path fill-rule="evenodd" clip-rule="evenodd" d="M406.904 170.19L408.709 169.674C406.904 168.299 407.076 168.127 406.904 170.19Z" fill="#B65145"/>
<path fill-rule="evenodd" clip-rule="evenodd" d="M376.892 155.975C378.542 156.576 377.063 156.834 378.456 155.717C377.579 154.239 377.321 154.428 376.892 155.975Z" fill="#B65145"/>
<path fill-rule="evenodd" clip-rule="evenodd" d="M372.148 151.832L373.196 150.285L371.374 150.457L372.148 151.832Z" fill="#B65145"/>
<mask id="mask1_302_1900" style="mask-type:luminance" maskUnits="userSpaceOnUse" x="479" y="79" width="5" height="9">
<path d="M479.649 79.1047H483.586V87.9056H479.649V79.1047Z" fill="white"/>
</mask>
<g mask="url(#mask1_302_1900)">
<path fill-rule="evenodd" clip-rule="evenodd" d="M482.16 83.2127C482.332 83.3846 482.418 83.4706 482.504 83.5565V82.0954C482.246 81.9235 482.418 82.2673 482.16 83.2127Z" fill="#B65145"/>
</g>
<path fill-rule="evenodd" clip-rule="evenodd" d="M392.414 145.111L390.953 145.885C392.672 146.83 392.672 146.744 392.414 145.111Z" fill="#B65145"/>
<path fill-rule="evenodd" clip-rule="evenodd" d="M388.787 142.946C390.867 142.43 389.836 143.221 389.75 141.742C387.498 142.172 388.787 141.742 388.787 142.946Z" fill="#B65145"/>
<path fill-rule="evenodd" clip-rule="evenodd" d="M460.945 65.9721C462.149 64.4251 461.977 64.9408 460.602 63.8922L460.945 65.9721Z" fill="#B65145"/>
<path fill-rule="evenodd" clip-rule="evenodd" d="M470.09 96.4827C470.52 96.7405 471.895 96.3108 470.606 95.7092C469.403 95.2794 468.973 95.6232 470.09 96.4827Z" fill="#B65145"/>
<mask id="mask2_302_1900" style="mask-type:luminance" maskUnits="userSpaceOnUse" x="479" y="74" width="5" height="6">
<path d="M479.649 74.7046H483.586V79.105H479.649V74.7046Z" fill="white"/>
</mask>
<g mask="url(#mask2_302_1900)">
<path fill-rule="evenodd" clip-rule="evenodd" d="M482.503 76.9219C481.987 76.6641 482.589 76.836 481.558 77.4376C482.503 77.8673 482.331 78.2111 482.503 78.0392V76.9219Z" fill="#B65145"/>
</g>
<path fill-rule="evenodd" clip-rule="evenodd" d="M420.089 62.1735L419.66 60.1108C419.23 61.2281 419.058 61.4 420.089 62.1735Z" fill="#B65145"/>
<path fill-rule="evenodd" clip-rule="evenodd" d="M462.769 73.1226C463.457 71.9194 463.199 72.1772 462.236 71.2318L462.769 73.1226Z" fill="#B65145"/>
<path fill-rule="evenodd" clip-rule="evenodd" d="M339.231 147.861C339.489 148.119 340.521 147.776 339.575 147.346C338.802 146.916 338.527 147.26 339.231 147.861Z" fill="#B65145"/>
<mask id="mask3_302_1900" style="mask-type:luminance" maskUnits="userSpaceOnUse" x="228" y="338" width="256" height="280">
<path d="M228.824 338.731H483.585V617.161H228.824V338.731Z" fill="white"/>
</mask>
<g mask="url(#mask3_302_1900)">
<path fill-rule="evenodd" clip-rule="evenodd" d="M468.012 455.548C465.949 458.574 465.434 470.468 464.918 474.766C464.23 481.332 463.285 487.451 462.064 493.915C460.947 500.206 458.713 506.411 457.939 512.616C457.08 518.994 456.461 525.543 455.429 531.937C453.539 543.832 454.656 559.594 455.429 571.85C455.945 581.15 465.262 596.929 469.92 606.762C471.209 609.598 473.1 614.772 474.664 617.625H470.522C469.92 616.852 469.232 616.061 468.889 615.545C452.593 591.584 428.442 572.022 411.202 546.496C400.596 530.717 390.695 512.702 382.839 495.376C379.659 488.311 359.479 448.483 354.048 446.49C354.563 449.429 364.911 467.873 367.077 472.445C378.8 497.438 388.873 532.711 404.653 552.1C412.938 562.276 419.917 571.163 429.749 579.861C443.62 592.271 442.761 592.529 455 607.191C457.853 610.457 460.517 613.998 463.113 617.453L463.285 617.625H460.861C457.939 613.397 454.914 610.199 451.029 606.246C444.394 599.267 431.21 594.867 421.807 593.474C416.29 592.701 411.202 591.498 405.598 590.982C400.424 590.38 394.305 590.466 388.787 590.037C362.677 587.957 314.306 585.808 290.774 579.431C280.684 576.663 270.078 572.882 260.263 569.083C255.777 567.364 232.589 559.251 230.853 557.016C233.62 556.243 238.88 558.305 242.06 558.735C263.529 561.502 303.185 558.219 325.084 557.704C358.362 556.93 363.708 557.446 394.305 562.792C400.957 563.909 413.625 568.481 415.774 568.567C413.453 565.198 408.709 559.68 405.856 556.414C394.82 543.488 388.013 528.912 381.98 513.218C377.837 502.44 373.024 491.405 368.624 480.713C366.905 476.76 356.471 451.921 352.157 450.202C353.532 456.58 351.383 474.852 351.039 482.363C350.868 487.709 350.782 493.227 350.61 498.487C350.438 503.214 350.094 508.818 349.131 513.476C345.865 513.562 345.436 510.296 343.012 508.646C338.715 510.382 331.547 516.243 325.943 503.919C323.709 504.005 320.683 503.214 319.91 503.3C317.074 503.575 318.621 503.3 314.478 501.753C305.436 498.401 309.648 498.143 305.952 491.147C302.583 490.459 298.784 489.944 296.807 486.764C296.034 483.481 308.616 467.013 310.696 464.693C313.533 461.41 316.3 457.611 319.05 454.173C321.199 451.578 327.507 445.888 328.281 443.395C319.48 448.226 311.9 452.781 302.583 457.009C300.177 458.041 298.269 458.299 295.948 459.347C293.971 460.292 291.805 461.668 289.657 462.269C282.678 464.091 280.856 459.605 279.825 459.003C277.332 457.697 275.252 458.917 272.502 456.837C270.336 452.265 274.393 445.888 272.932 441.144C271.024 439.769 270.852 440.37 269.391 439.511C268.445 438.995 267.758 438.136 266.555 437.362C264.389 436.073 262.67 435.282 260.607 433.391C255.519 428.733 258.183 425.381 261.037 420.465C259.387 416.838 249.572 412.18 255.949 411.063L263.787 409.945C267.328 409.602 280.254 410.031 283.623 410.891C286.975 411.75 289.485 411.664 292.837 412.18C301.981 413.658 323.451 421.067 329.398 421.325C327.146 418.041 324.138 416.58 321.027 414.346C315.252 409.945 310.61 404.857 305.093 400.199C267.758 368.743 275.768 372.181 291.805 364.686L292.751 360.544C295.003 359.512 299.661 360.2 302.497 359.856C306.984 359.34 309.39 358.137 313.361 355.799L313.189 347.531C316.386 346.242 318.535 348.219 322.333 346.586C323.795 343.818 322.935 342.014 325.685 340.552C334.658 349.594 343.7 380.981 344.748 394.939C345.178 400.801 345.522 407.006 348.1 412.524C350.352 412.696 352.243 414.088 353.876 415.463C354.993 413.916 358.964 400.113 359.479 397.621C360.081 394.767 361.559 392.189 362.333 388.906C363.02 385.984 363.622 383.044 364.395 380.036C365.942 373.728 371.632 349.078 376.806 346.156C378.542 347.875 378.009 350.368 378.714 353.049C385.005 351.141 387.412 352.104 392.844 355.112C400.166 359.254 396.642 363.139 399.736 369.087C401.129 369.173 409.826 371.493 410.858 372.181C419.229 378.128 408.194 386.929 420.002 393.048C425.348 395.713 426.208 396.142 428.803 401.918C428.803 401.918 429.147 402.881 424.145 406.748C421.464 408.828 419.659 409.172 416.462 409.945C411.459 411.149 404.395 413.125 399.65 415.033C391.039 418.557 372.234 424.333 364.997 427.272C369.226 429.936 375.517 428.991 380.605 430.555C385.263 432.016 390.179 433.048 395.009 434.251C402.848 436.245 422.237 437.706 424.317 441.677C422.839 443.739 418.112 446.232 414.829 450.374C417.149 456.408 420.776 455.806 413.883 463.301C409.311 468.303 413.711 472.789 416.204 478.307C412.078 483.309 411.459 479.338 407.85 482.621C404.91 486.678 409.397 494.946 405.77 498.143C399.65 496.837 388.185 482.621 383.974 477.361C380.691 473.305 376.72 469.334 373.798 465.466C371.03 461.668 366.458 457.869 363.192 454.001C363.02 456.58 371.976 469.592 375.259 476.33C387.068 500.893 397.846 523.394 413.282 546.496C419.487 555.813 434.579 573.655 442.589 581.923C447.591 587.097 453.367 592.615 457.767 598.305C460.088 601.33 469.834 615.202 472.069 616.061C468.803 606.676 463.457 598.476 459.314 589.779C451.734 573.655 453.711 560.557 452.937 543.66C452.679 536.75 454.484 529.427 455.258 522.535C456.719 508.13 460.346 495.204 462.683 480.885C463.801 473.906 464.058 466.927 465.176 459.863C466.465 451.921 464.316 441.144 466.809 438.737C468.975 440.628 467.668 447.005 468.373 450.116C469.318 454.259 471.037 459.003 472.498 462.957C476.899 474.594 477.586 476.932 482.502 486.678V490.631C480.612 486.936 478.79 483.223 477.071 479.51C473.444 471.672 471.123 463.472 468.012 455.548ZM475.352 617.625C476.125 614.514 475.695 609.082 476.125 605.644C478.274 590.037 482.674 590.122 473.444 580.634C470.865 578.056 464.918 574.515 464.316 570.716C468.803 573.14 475.867 581.236 479.391 584.949C482.245 580.29 479.133 564.768 478.102 559.251C476.813 552.358 477.414 551.928 472.069 546.84C469.576 544.52 464.23 540.205 462.494 537.884C467.84 539.689 471.811 545.551 475.18 547.098C476.297 540.377 470.693 533.312 474.836 509.866C475.266 507.185 474.492 505.466 477.071 506.067C478.704 507.185 476.039 516.673 475.61 519.423C474.492 527.794 476.899 542.697 478.961 550.983C480.268 556.243 480.354 562.878 482.159 567.622C482.245 567.45 482.416 567.364 482.502 567.192V571.507C482.502 571.678 482.502 571.764 482.416 571.936C482.331 572.882 482.416 574.601 482.502 576.148V583.144C481.815 590.466 479.494 598.476 479.752 600.9C480.268 600.556 481.385 599.525 482.502 598.39V600.298C481.729 601.072 480.869 601.846 480.182 602.619C478.102 605.043 477.586 612.967 477.844 617.625H475.352ZM481.041 617.625C481.557 617.281 482.073 616.852 482.502 616.422V617.625H481.041ZM430.093 582.886C417.493 564.854 383.183 563.307 365.083 559.766C360.854 558.907 323.537 559.423 316.386 559.594C308.187 559.68 300.177 560.127 291.977 560.213C283.795 560.385 276.026 561.245 267.586 560.987C260.091 560.729 250.775 560.557 243.366 560.729C246.976 563.823 285.17 576.852 291.719 578.313C320.769 584.777 365.685 586.581 396.299 588.833C439.564 591.841 440.44 598.992 446.732 599.955C438.189 587.527 431.983 586.066 419.487 580.548C413.367 577.798 409.826 575.546 404.309 576.062C401.129 576.405 387.584 579.603 386.552 579.431C389.303 575.89 395.267 576.491 399.221 574.687C397.416 573.569 382.582 571.06 379.917 570.888C375.173 570.544 377.236 571.421 375.431 572.452C374.829 572.796 371.03 573.999 369.827 574.429C366.458 575.546 362.505 580.806 360.511 578.399C363.622 578.056 363.708 576.938 365.685 575.116C367.936 573.054 370.085 572.624 372.853 571.421C369.397 569.599 359.565 569.942 356.041 570.028C347.413 570.372 311.126 572.452 306.64 568.395C308.788 566.075 313.447 567.708 316.386 568.309C320.168 568.997 322.162 569.083 326.201 569.169C331.547 569.341 342.668 569.599 347.327 568.395C343.786 565.112 336.377 564.768 337.065 562.792C337.322 562.276 345.865 565.473 347.412 566.161C353.704 568.739 352.586 568.309 359.393 568.309C366.905 568.309 376.978 568.739 384.318 569.77C389.921 570.544 403.449 572.71 408.194 574.257C411.631 575.374 429.061 582.8 430.093 582.886ZM420.26 441.677C414.829 438.823 411.631 439.339 405.426 438.222C396.986 436.589 382.066 432.36 376.204 431.672C364.653 430.297 365.599 428.733 361.301 433.134L376.634 441.058C373.884 441.144 366.286 435.884 361.903 435.798C358.104 435.798 361.387 434.337 356.471 434.681L355.337 438.479L366.372 446.06C365.341 448.312 358.878 440.542 354.649 441.487C362.161 451.062 371.202 460.378 379.659 469.334C384.747 474.766 399.135 494.946 405.254 495.805C405.34 493.485 405.168 490.631 405.082 488.139C404.824 480.026 395.955 477.103 391.554 470.812C394.219 471.586 396.47 473.648 398.533 475.556C408.623 484.942 403.106 481.676 409.139 479.252C412.164 478.049 411.545 479.854 413.196 478.049C413.539 475.556 409.655 467.443 407.42 465.81C404.91 463.988 400.596 461.839 398.447 460.207C401.644 459.777 406.114 463.215 408.881 465.295C411.202 463.472 414.141 459.519 415.602 457.009C414.743 454.087 413.11 450.976 410.686 449.343C407.936 447.452 407.248 450.116 404.223 446.575C406.732 446.232 410.514 447.366 412.594 448.827C414.914 447.366 419.143 443.653 420.26 441.677ZM344.748 449.773C344.129 451.749 343.442 454.947 342.239 456.236C341.035 451.234 346.123 446.232 343.786 441.23C342.324 442.794 339.316 447.005 337.838 448.999C337.236 449.945 333.627 457.525 334.314 453.915C335.947 445.458 344.318 445.888 340.606 436.846C332.406 442.106 322.849 453.142 316.816 460.722C311.9 466.927 302.153 479.51 298.87 486.231C301.724 489.428 304.216 488.225 307.671 489.944C309.648 488.139 310.696 486.678 312.415 485.114C314.478 483.395 316.214 481.16 317.331 483.567C316.73 483.996 309.82 488.998 309.132 490.889C309.562 501.839 311.384 496.837 317.675 501.237C320.597 499.776 317.16 501.065 319.652 499.518C321.027 502.183 323.279 502.784 325.513 500.893C326.717 499.776 327.146 496.751 327.937 495.118C328.797 493.227 330.086 491.405 330.945 489.6C331.633 488.139 332.32 485.286 333.111 484.254C334.744 490.803 320.425 502.526 332.063 508.818C334.486 510.124 337.065 509.522 339.402 508.044C342.582 505.981 342.239 498.315 342.067 494.86C341.895 491.835 340.949 490.374 343.27 488.827C344.129 490.717 343.872 496.923 343.786 499.518C343.528 504.864 342.41 504.95 346.725 509.952C348.1 508.474 347.756 508.13 348.014 505.809L350.094 460.035C350.18 456.236 351.555 445.114 347.756 443.653C345.35 444.255 345.522 447.194 344.748 449.773ZM354.219 436.846L352.415 433.477C348.186 433.219 349.561 436.331 348.444 437.792C346.381 436.503 348.53 437.448 346.897 436.073L342.84 435.798C344.404 438.909 346.209 441.591 349.905 441.058C351.985 439.167 350.524 439.425 351.555 438.393C352.243 437.62 352.329 438.479 354.219 436.846ZM361.215 429.421C360.081 425.381 358.018 422.442 353.876 425.725C350.094 428.733 353.79 430.985 355.784 433.305C359.221 432.36 359.651 432.962 361.215 429.421ZM350.438 430.383C347.842 424.951 348.014 428.561 344.404 424.866L340.176 428.733C341.637 431.844 343.528 432.79 346.381 433.821C348.874 432.618 348.616 432.274 350.438 430.383ZM338.268 428.303C334.658 430.022 335.088 431.844 336.549 435.282L340.176 433.649L338.268 428.303ZM375.345 352.19C371.202 358.395 366.991 376.667 365.083 385.107C362.762 395.111 360.339 400.543 357.674 409.687L355.956 415.635C355.612 417.01 355.423 416.322 355.698 417.955C360.854 414.174 364.138 404.513 366.372 404.428C367.765 406.404 357.245 417.268 356.815 420.723C359.221 418.385 362.075 417.01 364.825 414.947C366.905 413.4 369.999 409.859 372.062 410.117C371.89 412.266 367.249 414.861 365.341 416.237C362.247 418.471 360.425 419.09 357.674 421.926C359.737 423.215 361.026 424.59 362.677 425.639L412.336 408.398C417.596 407.092 423.629 406.232 426.466 401.316C424.833 397.621 423.458 396.4 419.917 394.595C415 392.189 415.946 391.072 413.453 389.421C410.944 389.249 406.99 392.361 404.051 393.22C400.424 394.252 398.189 395.455 397.588 399.168C396.642 393.478 403.879 392.103 412.508 387.273C410.6 381.927 415.516 377.526 409.569 373.47C409.311 373.298 397.846 369.688 396.986 369.516L385.091 380.896C384.318 382.099 383.699 384.333 383.441 383.904C380.175 383.302 390.695 373.126 391.898 372.009C405.942 359.34 383.888 348.649 379.144 356.745C377.837 358.911 377.322 361.575 376.548 363.827C375.259 367.694 376.033 367.608 375.775 371.149C373.11 369.173 376.634 358.481 377.837 355.456L375.345 352.19ZM347.241 414.346C340.434 414.604 343.356 425.983 349.733 424.866C356.299 423.817 354.563 414.174 347.241 414.346ZM342.153 423.817C341.809 421.153 339.918 420.895 337.58 419.52C333.627 421.325 333.008 421.926 334.916 425.983C337.838 425.725 340.348 425.983 342.153 423.817ZM333.197 427.1C331.375 423.731 328.109 423.129 324.654 422.528C320.769 421.84 319.05 420.895 315.509 419.778C300.091 415.033 272.33 409 257.324 413.4C262.326 419.434 263.443 417.698 270.25 418.729C272.588 419.176 274.823 419.949 277.16 420.465C279.309 420.809 281.801 420.551 283.795 421.239C281.801 424.419 272.33 420.121 263.873 419.949C258.011 428.389 258.441 431.071 267.5 436.159C272.33 438.823 271.471 439.769 277.16 437.62C280.77 436.245 284.311 435.196 287.921 435.368C287.405 436.245 287.835 435.884 286.631 436.417C286.46 436.503 285.428 436.76 285.256 436.76L275.854 439.854C275.768 444.255 273.705 452.437 274.651 455.806C280.34 458.831 282.85 453.915 292.579 449.429C294.315 448.655 296.636 448.14 298.355 448.398C294.401 450.976 285.342 454.431 283.022 457.697C284.225 460.464 284.741 461.152 288.196 460.378L310.078 450.976C318.792 446.833 322.248 444.341 329.484 439.511C334.056 436.503 334.486 436.932 333.713 435.196C332.492 432.618 328.625 436.674 324.826 435.282L333.197 431.93L332.922 428.905L321.543 428.647C323.021 426.498 328.539 428.046 333.197 427.1ZM343.957 413.297C345.694 411.75 345.436 411.492 344.92 408.914L343.27 396.503C341.637 378.3 334.658 359.598 326.287 343.561C321.99 347.961 325.256 350.797 326.545 355.456C327.318 358.223 330.43 365.03 329.398 367.265L321.715 349.164C319.05 349.336 317.245 348.992 314.564 349.852C316.3 357.278 313.704 352.705 318.019 363.827C318.707 365.717 322.763 376.839 322.763 377.612C318.535 373.298 316.73 364.17 313.876 358.481C304.818 362.881 305.608 360.973 297.237 362.434C299.128 365.632 309.218 378.214 309.39 379.331C305.866 379.417 298.183 365.374 294.831 363.569C288.969 372.267 291.204 364.944 280.512 373.04C282.592 379.417 300.434 393.994 306.296 398.91C310.696 402.623 315.166 407.178 319.652 410.719C326.975 416.58 328.367 416.065 330.43 417.44C332.492 418.815 331.375 419.348 333.799 418.987C332.492 415.205 328.711 410.633 326.201 407.522C330.859 406.146 331.547 419.176 341.637 418.299C341.723 414.775 343.098 416.752 341.637 412.867C340.863 410.977 339.316 409.086 339.23 407.178C341.121 407.969 340.434 407.694 341.379 409.602L343.098 412.61C343.27 412.696 343.528 413.039 343.528 412.953C343.528 412.867 343.786 413.211 343.957 413.297Z" fill="#B65145"/>
</g>
<path fill-rule="evenodd" clip-rule="evenodd" d="M290.087 569.255C288.196 569.598 283.538 567.192 282.507 565.198C284.913 564.768 288.282 567.278 290.087 569.255Z" fill="#B65145"/>
<path fill-rule="evenodd" clip-rule="evenodd" d="M337.064 388.906C335.775 387.702 334.056 381.497 334.744 379.95C336.549 381.239 337.408 386.929 337.064 388.906Z" fill="#B65145"/>
<path fill-rule="evenodd" clip-rule="evenodd" d="M327.508 387.702C325.342 387.444 323.795 382.184 323.709 381.153C325.514 381.325 324.998 381.497 326.115 383.903C326.717 385.382 327.422 386.327 327.508 387.702Z" fill="#B65145"/>
<path fill-rule="evenodd" clip-rule="evenodd" d="M396.901 457.611C394.735 458.385 395.869 457.697 393.532 456.58C391.727 455.806 391.813 456.666 390.18 455.205C393.102 454.259 394.821 455.548 396.901 457.611Z" fill="#B65145"/>
<path fill-rule="evenodd" clip-rule="evenodd" d="M301.292 423.559C299.573 424.694 294.829 424.419 293.265 422.872C295.602 421.926 298.868 423.473 301.292 423.559Z" fill="#B65145"/>
<path fill-rule="evenodd" clip-rule="evenodd" d="M468.973 538.486L463.541 533.398C466.291 533.914 469.231 535.375 468.973 538.486Z" fill="#B65145"/>
<path fill-rule="evenodd" clip-rule="evenodd" d="M350.437 577.884C348.786 577.97 346.208 577.196 345.091 575.718C346.552 573.999 346.38 574.944 347.841 575.89C349.302 576.852 349.818 576.491 350.437 577.884Z" fill="#B65145"/>
<path fill-rule="evenodd" clip-rule="evenodd" d="M376.375 452.884C374.398 452.884 371.803 451.148 370.256 449.773C371.975 449.343 371.975 449.515 373.711 450.718C374.742 451.406 375.602 451.921 376.375 452.884Z" fill="#B65145"/>
<path fill-rule="evenodd" clip-rule="evenodd" d="M471.21 572.194L466.036 568.481C468.46 568.309 471.21 569.513 471.21 572.194Z" fill="#B65145"/>
<path fill-rule="evenodd" clip-rule="evenodd" d="M284.998 571.421C282.935 570.974 280.254 570.028 279.48 567.966C281.199 567.88 283.709 570.028 284.998 571.421Z" fill="#B65145"/>
<path fill-rule="evenodd" clip-rule="evenodd" d="M325.255 473.046C324.395 474.679 323.106 476.587 321.456 477.705C321.714 475.986 323.708 472.187 325.255 473.046Z" fill="#B65145"/>
<path fill-rule="evenodd" clip-rule="evenodd" d="M466.721 530.459L462.406 526.591C464.4 526.935 467.752 527.881 466.721 530.459Z" fill="#B65145"/>
<path fill-rule="evenodd" clip-rule="evenodd" d="M296.894 433.133C295.69 434.509 293.971 435.54 292.665 433.907C293.714 432.704 295.604 432.618 296.894 433.133Z" fill="#B65145"/>
<path fill-rule="evenodd" clip-rule="evenodd" d="M315.337 386.156C313.446 386.156 311.555 384.935 313.79 383.388L315.337 386.156Z" fill="#B65145"/>
<path fill-rule="evenodd" clip-rule="evenodd" d="M305.522 431.586L300.777 431.758C301.981 429.85 303.957 430.469 305.522 431.586Z" fill="#B65145"/>
<path fill-rule="evenodd" clip-rule="evenodd" d="M332.576 374.69C331.287 373.555 330.513 373.126 332.06 371.407C333.109 372.438 333.109 372.868 332.576 374.69Z" fill="#B65145"/>
<path fill-rule="evenodd" clip-rule="evenodd" d="M304.042 443.138C303.613 444.083 303.956 443.654 303.269 444.427C303.097 444.599 301.98 445.545 301.722 445.716L301.464 443.482L304.042 443.138Z" fill="#B65145"/>
<path fill-rule="evenodd" clip-rule="evenodd" d="M390.522 401.488C390.522 399.855 390.436 399.511 392.155 398.566C392.843 400.285 391.983 400.457 390.522 401.488Z" fill="#B65145"/>
<path fill-rule="evenodd" clip-rule="evenodd" d="M348.185 580.548L343.183 577.454C345.348 577.626 347.067 578.571 348.185 580.548Z" fill="#B65145"/>
<path fill-rule="evenodd" clip-rule="evenodd" d="M384.576 403.568C383.888 404.857 383.802 405.029 382.238 405.545C382.41 403.568 382.41 403.31 384.576 403.568Z" fill="#B65145"/>
<path fill-rule="evenodd" clip-rule="evenodd" d="M311.986 439.597C310.955 440.972 310.955 441.23 308.961 440.37C310.164 438.909 309.563 439.683 311.986 439.597Z" fill="#B65145"/>
<path fill-rule="evenodd" clip-rule="evenodd" d="M379.316 388.046C379.316 389.679 380.519 388.906 377.752 389.937C377.752 388.046 377.752 388.132 379.316 388.046Z" fill="#B65145"/>
<path fill-rule="evenodd" clip-rule="evenodd" d="M372.595 397.964C372.509 396.675 373.283 396.056 374.486 395.025C374.486 396.503 373.971 397.105 372.595 397.964Z" fill="#B65145"/>
<path fill-rule="evenodd" clip-rule="evenodd" d="M346.725 418.385C347.498 416.408 346.467 417.87 348.358 416.666L348.014 419.176L346.725 418.385Z" fill="#B65145"/>
<path fill-rule="evenodd" clip-rule="evenodd" d="M289.139 423.043C287.403 423.817 287.317 424.332 287.489 422.098C288.624 422.098 287.919 420.809 289.139 423.043Z" fill="#B65145"/>
<path fill-rule="evenodd" clip-rule="evenodd" d="M383.183 442.88C381.034 443.31 382.066 443.568 380.604 442.021C382.409 441.763 382.066 441.23 383.183 442.88Z" fill="#B65145"/>
<path fill-rule="evenodd" clip-rule="evenodd" d="M342.841 484.426C343.185 482.793 342.841 483.137 344.319 483.137C344.13 484.254 345.436 485.028 342.841 484.426Z" fill="#B65145"/>
<path fill-rule="evenodd" clip-rule="evenodd" d="M337.492 472.188C337.149 472.016 336.203 473.219 336.461 470.211C337.836 470.899 337.75 470.211 337.492 472.188Z" fill="#B65145"/>
<path fill-rule="evenodd" clip-rule="evenodd" d="M373.367 376.409C373.367 374.26 373.11 375.55 374.743 374.69C374.743 375.893 374.914 376.409 373.367 376.409Z" fill="#B65145"/>
<path fill-rule="evenodd" clip-rule="evenodd" d="M354.392 427.959L355.698 425.897C356.128 427.873 356.643 428.389 354.392 427.959Z" fill="#B65145"/>
<path fill-rule="evenodd" clip-rule="evenodd" d="M345.262 477.19C345.606 478.909 346.466 477.533 344.403 479.252C344.128 477.104 343.354 477.963 345.262 477.19Z" fill="#B65145"/>
<path fill-rule="evenodd" clip-rule="evenodd" d="M377.322 408.914C377.064 407.178 376.376 407.968 378.198 406.92C378.714 408.914 379.058 407.607 377.322 408.914Z" fill="#B65145"/>
<path fill-rule="evenodd" clip-rule="evenodd" d="M346.123 429.334C345.779 431.071 345.951 430.985 344.404 430.194C345.006 429.248 344.404 429.163 346.123 429.334Z" fill="#B65145"/>
<path fill-rule="evenodd" clip-rule="evenodd" d="M399.047 445.2C399.047 443.739 398.101 445.028 399.992 443.481C400.422 445.114 401.041 445.114 399.047 445.2Z" fill="#B65145"/>
<path fill-rule="evenodd" clip-rule="evenodd" d="M350.61 419.09L350.524 420.723L349.132 419.691L350.61 419.09Z" fill="#B65145"/>
<path fill-rule="evenodd" clip-rule="evenodd" d="M335.603 478.221C334.485 480.197 335.001 478.994 334.142 478.908C334.829 477.791 333.54 477.877 335.603 478.221Z" fill="#B65145"/>
<path fill-rule="evenodd" clip-rule="evenodd" d="M373.454 380.895L372.32 382.184C371.976 380.981 372.32 380.122 373.454 380.895Z" fill="#B65145"/>
<path fill-rule="evenodd" clip-rule="evenodd" d="M397.502 443.997L396.815 445.458C396.213 444.341 395.353 444.169 397.502 443.997Z" fill="#B65145"/>
<mask id="mask4_302_1900" style="mask-type:luminance" maskUnits="userSpaceOnUse" x="0" y="387" width="260" height="231">
<path d="M0 387.135H259.626V617.161H0V387.135Z" fill="white"/>
</mask>
<g mask="url(#mask4_302_1900)">
<path fill-rule="evenodd" clip-rule="evenodd" d="M217.065 593.044C213.438 593.044 203.176 599.164 199.394 601.244C193.533 604.252 187.843 606.761 181.81 609.426C175.948 611.935 169.468 613.482 163.95 616.336C163.005 616.766 162.145 617.195 161.2 617.625H157.917C169.554 612.021 181.122 608.137 193.017 602.705C199.394 599.783 205.428 596.156 211.891 593.13C219.213 589.778 226.983 582.095 230.421 582.8C229.991 585.636 224.044 588.145 221.723 590.466C218.87 593.474 215.861 597.531 213.352 600.986C207.49 609.082 205.342 611.935 201.973 617.625H199.91C200.597 616.422 201.371 615.115 202.144 613.912C206.631 606.589 212.149 600.126 217.065 593.044ZM104.218 617.625H102.585C104.647 610.371 106.968 603.22 109.907 596.242C117.058 578.571 126.718 560.385 136.722 544.261C140.848 537.712 162.833 498.83 161.458 493.227C159.309 495.289 149.649 514.077 147.053 518.392C132.752 542.01 108.962 569.942 101.536 593.835C98.9577 602.103 96.5512 609.684 94.7292 617.625H92.0648C90.9475 599.353 78.8635 578.399 73.2598 565.112C71.6269 561.158 50.5013 530.287 46.4619 524.425C41.8896 517.704 37.0594 511.155 32.4011 504.52C27.7428 497.696 22.8267 491.748 18.3575 484.512C14.3868 478.221 9.38477 470.296 5.07028 464.263C4.55461 468.99 14.8166 508.044 17.223 514.249C27.9147 542.096 51.2749 580.462 66.367 607.191C68.6188 610.99 70.4236 614.428 72.1425 617.625H70.5096C70.2517 617.109 69.9939 616.594 69.7361 616.061C67.3124 611.506 63.8745 606.418 61.193 601.587C48.5246 578.743 23.4455 537.265 15.762 514.077C12.496 504.176 9.72856 493.227 7.49396 482.965C6.46261 478.306 0.412009 454.517 1.28866 451.749C3.43731 453.657 4.64055 459.261 6.01569 462.097C15.5901 481.504 40.2566 512.702 52.8391 530.63C71.9707 557.961 74.3943 562.62 86.9768 591.068C89.6412 597.273 92.9243 610.371 94.0416 612.193C95.5027 608.394 97.4966 601.33 98.6139 597.187C103.358 580.892 111.712 567.106 121.458 553.389C128.093 544.004 134.642 533.914 141.02 524.253C143.443 520.643 158.346 498.143 157.401 493.656C152.743 498.315 136.379 506.669 129.984 510.553C125.429 513.304 120.771 516.329 116.284 519.079C112.228 521.589 107.398 524.425 103.014 526.161C101.106 523.48 103.616 521.331 103.616 518.392C99.8172 515.813 91.0335 513.046 98.0982 501.581C96.809 499.776 95.8465 496.75 95.3308 496.149C93.44 494 94.5573 495.118 93.5259 490.803C91.3773 481.418 93.9556 484.77 97.7545 477.877C96.4653 474.68 94.7292 471.242 96.2762 467.787C98.6139 465.38 119.31 466.755 122.318 467.185C126.632 467.701 131.377 467.873 135.76 468.302C139.129 468.646 147.328 470.726 149.821 470.038C140.934 465.38 132.924 461.581 124.295 456.15C122.06 454.774 120.771 453.227 118.605 451.921C116.714 450.804 114.394 449.772 112.743 448.225C107.398 443.481 110.079 439.51 109.993 438.307C109.649 435.54 107.569 434.422 107.759 430.985C110.337 426.67 117.831 426.498 121.029 422.699C121.115 420.379 120.513 420.551 120.427 418.815C120.427 417.783 120.685 416.666 120.685 415.291C120.599 412.695 120.255 410.89 120.685 408.14C121.802 401.316 126.031 401.746 131.634 401.316C133.783 397.964 132.236 387.187 136.722 391.845L141.982 397.878C144.217 400.543 151.024 411.578 152.227 414.861C153.362 418.041 154.737 420.121 156.198 423.215C160.083 431.586 165.772 453.657 168.78 458.745C170.344 455.032 169.829 451.749 170.087 447.882C170.516 440.628 172.149 433.993 172.923 426.842C178.527 378.214 179.988 386.843 195.166 396.056L199.222 394.595C201.199 395.884 203.262 400.113 205.084 402.365C208.006 405.802 210.344 407.092 214.469 409.172L221.293 404.341C224.129 406.318 223.7 409.172 227.155 411.492C230.335 411.148 231.28 409.429 234.048 410.976C231.452 423.387 210.344 448.311 199.308 456.923C194.65 460.55 189.648 464.263 186.451 469.42C187.585 471.328 187.499 473.734 187.241 475.9C189.132 475.9 202.832 471.671 205.256 470.726C207.92 469.592 210.945 469.334 214.039 468.216C216.893 467.099 219.643 466.068 222.582 465.036C228.616 462.785 252.406 453.915 257.752 456.579C257.15 459.003 254.829 459.948 253.007 462.011C258.009 466.154 258.611 468.732 259.041 474.937C259.728 483.309 254.486 482.535 251.288 488.397C251.89 489.6 254.829 498.143 254.829 499.346C254.486 509.608 241.026 505.294 242.573 518.478C243.278 524.511 243.45 525.371 239.995 530.802C239.995 530.802 239.393 531.576 233.36 529.513C230.249 528.482 228.874 527.193 226.553 524.941C222.668 521.417 217.151 516.673 212.922 513.733C205.256 508.559 189.992 496.063 183.529 491.662C183.7 496.665 188.015 501.409 189.476 506.497C190.851 511.241 192.759 515.813 194.392 520.558C197.056 528.224 206.545 545.121 204.396 549.092C201.887 549.006 197.142 546.41 191.883 545.98C188.187 551.24 190.679 553.905 180.675 552.358C173.868 551.24 172.579 557.446 169.468 562.62C162.919 561.932 165.944 559.164 161.286 557.961C156.198 557.789 151.797 566.075 147.156 564.768C144.818 559.079 150.336 541.666 152.399 535.203C153.963 530.287 154.995 524.769 156.713 520.111C158.26 515.727 158.879 509.78 160.34 505.036C158.003 506.239 152.227 520.901 148.359 527.364C134.471 550.811 121.716 572.28 111.025 597.789C109.048 602.619 106.538 610.027 104.218 617.625ZM86.9768 617.625H85.4298C84.725 613.31 84.1234 610.113 81.4591 606.847C79.3792 604.252 69.2204 594.866 68.7907 593.835C73.2598 594.265 76.0273 599.525 79.8261 601.845C79.7402 599.697 73.6036 585.98 72.2285 583.573C69.908 579.431 70.3377 581.665 68.4469 580.72C67.8281 580.462 64.734 577.969 63.7026 577.11C60.9352 575.03 54.3002 574.514 55.2456 571.678C57.2395 573.999 58.2709 573.483 60.8492 574.085C63.7886 574.772 65.3356 576.405 67.8281 577.969C67.3983 574.085 61.7946 566.16 59.7319 563.221C54.6439 556.242 32.8308 527.193 33.6903 521.245C36.8875 521.675 38.0907 526.505 39.208 529.255C40.7723 532.796 41.8036 534.515 43.8663 537.884C46.7197 542.439 52.6672 551.842 56.191 555.125C57.0676 550.295 53.2688 543.918 55.2456 543.488C55.8472 543.402 57.8411 552.186 58.1849 553.905C59.4741 560.643 59.3022 559.422 63.0151 565.112C67.1405 571.334 72.4004 579.946 75.5976 586.667C78.0041 591.755 83.7796 604.252 85.0688 608.996C85.4298 610.285 86.2033 613.826 86.9768 617.625ZM202.144 545.637C201.543 539.603 199.308 537.18 196.799 531.404C193.533 523.48 188.788 508.731 186.107 503.386C180.847 493.055 182.755 492.969 176.636 491.834L178.527 508.989C176.894 506.755 177.065 497.524 174.728 493.828C172.665 490.631 175.69 492.539 172.665 488.654L168.952 489.858L168.694 503.214C166.288 503.661 169.124 493.914 166.03 490.975C162.231 502.526 159.481 515.212 156.627 527.193C154.909 534.343 146.108 557.532 148.875 563.135C150.68 561.932 153.018 560.213 155.08 558.735C161.63 554.076 159.223 545.035 162.059 537.884C162.833 540.549 162.317 543.574 161.887 546.324C159.739 559.955 159.395 553.475 164.655 557.188C167.319 559.079 165.514 559.508 168.007 559.955C170.259 558.821 174.814 551.068 174.986 548.301C175.071 545.293 174.47 540.463 174.642 537.798C176.808 540.205 176.464 545.808 176.206 549.264C179.042 550.209 183.958 550.467 186.812 550.295C188.788 547.957 190.421 544.863 190.507 541.924C190.507 538.572 187.929 539.431 189.218 535.031C190.937 536.922 191.968 540.72 191.968 543.23C194.478 544.347 199.824 545.808 202.144 545.637ZM153.619 487.279C151.625 487.881 148.617 489.084 146.795 488.74C150.336 484.942 157.315 486.403 160.254 481.676C158.089 481.332 152.846 481.246 150.422 481.16C149.391 481.074 141.02 482.277 144.475 480.885C152.313 477.533 156.627 484.77 162.145 476.674C153.19 472.789 138.699 470.898 129.039 470.038C121.115 469.42 105.249 468.216 97.8404 469.334C96.809 473.39 99.2155 474.766 99.6453 478.65C102.241 479.252 104.046 479.338 106.28 479.939C108.876 480.627 111.626 480.885 110.337 483.137C109.563 482.879 101.622 479.939 99.7312 480.369C90.7584 486.764 95.9324 485.543 95.7605 493.227C98.6139 494.86 95.5886 492.711 98.2701 493.914C96.809 496.493 97.5826 498.744 100.419 499.518C101.966 499.948 104.733 498.659 106.624 498.401C108.618 498.057 110.853 498.057 112.829 497.782C114.48 497.61 117.144 496.493 118.433 496.579C113.878 501.581 96.1902 496.235 97.4107 509.436C97.6685 512.186 99.6453 513.991 102.155 515.04C105.679 516.587 111.798 512.1 114.565 509.952C116.972 508.216 117.745 506.583 120.255 507.7C119.138 509.436 113.792 512.616 111.712 513.991C107.054 516.759 106.366 515.899 104.647 522.191C106.538 522.534 106.71 522.105 108.79 520.987L148.102 497.352C151.282 495.375 161.286 490.373 160.426 486.317C158.535 484.684 156.198 486.403 153.619 487.279ZM169.64 487.967L171.462 484.598C169.296 480.988 167.491 483.824 165.6 483.652C165.6 481.246 166.03 483.566 166.202 481.504L164.225 477.963C162.489 480.988 161.286 483.91 163.778 486.764C166.46 487.365 165.428 486.403 166.889 486.678C167.921 486.85 167.233 487.279 169.64 487.967ZM179.73 489.686C182.497 486.574 183.7 483.223 178.698 481.59C174.126 480.111 174.298 484.426 173.439 487.365C176.12 489.686 175.948 490.373 179.73 489.686ZM172.923 481.246C176.034 476.072 173.095 478.221 174.126 473.133L168.608 471.843C166.803 474.766 167.061 476.845 167.835 479.854C170.173 481.16 170.344 480.799 172.923 481.246ZM167.921 470.038C164.483 467.959 163.177 469.248 161.2 472.359L164.483 474.508L167.921 470.038ZM251.804 458.745C244.396 458.659 226.811 465.294 218.698 468.388C209.14 472.101 203.262 472.961 194.22 475.814L188.273 477.705C186.898 478.135 187.413 477.619 186.193 478.736C192.14 480.988 202.059 478.306 203.434 480.111C202.488 482.363 187.671 479.682 184.474 481.16C187.757 481.933 190.507 483.566 193.705 484.684C196.111 485.543 200.855 486.231 201.801 488.053C199.91 489.17 195.166 486.678 192.931 485.801C189.39 484.512 187.843 483.394 183.958 482.621C184.044 485.027 183.7 486.935 183.7 488.826L225.505 520.643C229.475 524.253 233.532 528.826 239.222 528.482C241.37 525.113 241.628 523.308 241.112 519.337C240.425 513.905 241.886 514.077 241.886 511.069C240.683 508.903 235.938 507.27 233.532 505.379C230.679 502.956 228.444 501.667 224.989 503.214C229.217 499.26 234.391 504.606 243.192 509.075C246.63 504.52 253.007 506.153 253.007 499.002C253.007 498.744 249.741 487.193 249.398 486.317L233.274 482.707C231.899 482.793 229.647 483.48 229.905 483.051C228.616 480.025 242.831 483.051 244.481 483.48C262.84 488.139 259.47 463.902 250.085 464.435C247.576 464.521 245.169 465.552 242.831 466.154C238.878 467.271 239.308 467.873 236.282 469.592C236.368 466.24 247.318 463.3 250.515 462.699L251.804 458.745ZM184.474 469.781C180.503 464.177 172.665 472.961 177.151 477.705C181.638 482.535 188.788 475.728 184.474 469.781ZM173.782 470.726C175.862 468.99 174.986 467.271 174.814 464.607C171.204 462.183 170.344 462.011 168.007 465.896C169.829 468.13 170.946 470.382 173.782 470.726ZM166.116 465.122C167.835 461.753 166.546 458.659 165.171 455.376C163.606 451.835 163.52 449.858 162.403 446.317C157.831 430.813 147.414 404.341 135.502 394.337C133.267 401.832 135.33 401.832 138.183 408.054C139.215 410.203 139.73 412.523 140.59 414.689C141.449 416.752 143.186 418.729 143.701 420.723C139.902 420.809 138.269 410.547 133.697 403.482C123.349 403.224 121.372 405.029 122.232 415.377C122.662 420.895 121.372 420.723 126.374 424.246C129.469 426.498 132.322 428.819 134.127 432.016C133.181 432.016 133.697 432.188 132.58 431.5C132.408 431.414 131.634 430.641 131.548 430.555L123.779 424.418C119.997 426.756 112.142 429.592 109.821 432.274C110.423 438.651 115.941 438.049 124.999 443.653C126.718 444.598 128.351 446.317 129.039 447.882C124.741 445.974 116.886 440.37 112.829 440.198C111.196 442.794 110.939 443.567 113.534 446.06L133.439 459.089C141.724 463.988 145.678 465.466 153.705 468.904C158.793 470.984 158.707 471.586 159.653 470.038C161.114 467.529 155.596 466.583 154.651 462.613L162.059 467.701L164.397 465.896L158.346 456.236C160.942 456.322 162.747 461.753 166.116 465.122ZM183.615 466.412C185.763 467.013 185.849 466.583 187.757 464.779L197.142 456.579C211.461 445.114 223.098 428.905 231.899 413.039C225.762 411.922 225.247 416.15 222.067 419.949C220.245 422.098 216.291 428.475 213.782 428.819L224.645 412.352C223.012 410.289 222.325 408.57 220.159 406.834C214.916 412.352 217.323 407.607 210.344 417.44C209.226 419.09 202.23 428.561 201.543 428.991C202.832 423.129 209.398 416.494 212.578 411.062C203.967 405.888 205.857 405.459 199.996 399.339C198.449 402.708 193.533 418.041 192.673 418.815C190.679 415.978 198.105 401.746 197.847 397.964C187.241 397.878 194.65 395.712 181.982 391.329C177.753 396.589 175.604 419.519 174.642 427.1C174.04 432.789 172.751 439.081 172.235 444.77C171.462 454.087 172.579 454.946 172.579 457.439C172.579 459.948 171.548 459.261 173.181 461.066C175.69 457.954 177.323 452.179 178.612 448.397C182.325 451.577 171.806 459.347 178.097 467.271C181.036 465.38 180.245 467.615 182.669 464.263C183.786 462.527 184.474 460.206 186.021 459.089C186.451 461.066 186.279 460.378 185.247 462.269L183.7 465.38C183.7 465.466 183.615 465.896 183.615 465.896C183.7 465.81 183.615 466.24 183.615 466.412Z" fill="#B65145"/>
</g>
<path fill-rule="evenodd" clip-rule="evenodd" d="M23.8783 507.959C22.486 506.498 21.9703 501.324 23.0017 499.347C24.7378 501.152 24.4799 505.208 23.8783 507.959Z" fill="#B65145"/>
<path fill-rule="evenodd" clip-rule="evenodd" d="M200.082 447.194C200.34 445.458 204.568 440.542 206.287 440.284C206.201 442.536 201.887 446.404 200.082 447.194Z" fill="#B65145"/>
<path fill-rule="evenodd" clip-rule="evenodd" d="M195.77 438.48C194.738 436.675 198.279 432.36 199.139 431.759C199.998 433.392 199.568 433.048 198.107 435.282C197.231 436.675 196.887 437.706 195.77 438.48Z" fill="#B65145"/>
<path fill-rule="evenodd" clip-rule="evenodd" d="M175.95 535.031C174.127 533.656 175.348 534.172 174.901 531.679C174.643 529.685 173.956 530.201 174.299 528.052C176.723 529.943 176.551 532.195 175.95 535.031Z" fill="#B65145"/>
<path fill-rule="evenodd" clip-rule="evenodd" d="M151.369 436.589C149.478 435.798 147.157 431.672 147.587 429.507C149.65 430.899 150.08 434.509 151.369 436.589Z" fill="#B65145"/>
<path fill-rule="evenodd" clip-rule="evenodd" d="M50.1584 562.878C49.127 561.589 48.3535 558.993 48.9552 557.274C51.1897 557.532 50.3303 557.876 50.3303 559.595C50.3303 561.417 50.846 561.675 50.1584 562.878Z" fill="#B65145"/>
<path fill-rule="evenodd" clip-rule="evenodd" d="M168.611 515.298C167.408 513.648 167.494 510.554 167.751 508.56C169.041 509.694 168.869 509.78 168.869 511.929C168.869 513.132 168.869 514.163 168.611 515.298Z" fill="#B65145"/>
<path fill-rule="evenodd" clip-rule="evenodd" d="M19.3035 504.865C18.53 502.871 17.8424 500.12 19.0456 498.315C20.077 499.691 19.7332 502.957 19.3035 504.865Z" fill="#B65145"/>
<path fill-rule="evenodd" clip-rule="evenodd" d="M123.438 483.911C121.633 484.169 119.312 484.083 117.49 483.309C119.054 482.622 123.352 482.192 123.438 483.911Z" fill="#B65145"/>
<path fill-rule="evenodd" clip-rule="evenodd" d="M141.02 438.222C139.129 437.964 137.324 437.104 138.012 435.11C139.559 435.368 140.676 436.847 141.02 438.222Z" fill="#B65145"/>
<path fill-rule="evenodd" clip-rule="evenodd" d="M190.423 427.53C189.306 425.983 189.22 423.731 191.798 424.78L190.423 427.53Z" fill="#B65145"/>
<path fill-rule="evenodd" clip-rule="evenodd" d="M146.97 444.513L144.306 440.628C146.54 440.628 147.159 442.622 146.97 444.513Z" fill="#B65145"/>
<path fill-rule="evenodd" clip-rule="evenodd" d="M209.487 435.539C209.659 433.906 209.573 432.961 211.894 433.305C211.55 434.766 211.206 434.938 209.487 435.539Z" fill="#B65145"/>
<path fill-rule="evenodd" clip-rule="evenodd" d="M136.638 449.687C135.589 449.858 136.122 449.944 135.073 449.773C134.902 449.687 133.44 449.257 133.183 449.257L134.902 447.71L136.638 449.687Z" fill="#B65145"/>
<path fill-rule="evenodd" clip-rule="evenodd" d="M219.214 498.659C220.52 497.696 220.778 497.438 222.497 498.401C221.466 499.948 220.864 499.346 219.214 498.659Z" fill="#B65145"/>
<path fill-rule="evenodd" clip-rule="evenodd" d="M46.6367 562.448L46.3789 556.672C47.4962 558.563 47.6681 560.471 46.6367 562.448Z" fill="#B65145"/>
<path fill-rule="evenodd" clip-rule="evenodd" d="M214.127 494.86C212.666 495.032 212.494 495.032 211.205 494C212.924 493.055 213.182 492.969 214.127 494.86Z" fill="#B65145"/>
<path fill-rule="evenodd" clip-rule="evenodd" d="M143.96 454.26C142.241 454.26 141.983 454.346 141.64 452.266C143.53 452.438 142.585 452.438 143.96 454.26Z" fill="#B65145"/>
<path fill-rule="evenodd" clip-rule="evenodd" d="M224.217 481.847C222.842 482.707 224.045 483.308 221.725 481.589C223.358 480.627 223.186 480.627 224.217 481.847Z" fill="#B65145"/>
<path fill-rule="evenodd" clip-rule="evenodd" d="M212.149 481.762C213.267 480.885 214.126 481.246 215.69 481.676C214.384 482.536 213.696 482.45 212.149 481.762Z" fill="#B65145"/>
<path fill-rule="evenodd" clip-rule="evenodd" d="M180.848 471.586C182.928 471.071 181.209 471.071 183.185 471.93L180.951 473.047L180.848 471.586Z" fill="#B65145"/>
<path fill-rule="evenodd" clip-rule="evenodd" d="M145.077 426.241C143.444 425.123 143.015 425.381 144.991 424.247C145.593 425.209 146.281 423.903 145.077 426.241Z" fill="#B65145"/>
<path fill-rule="evenodd" clip-rule="evenodd" d="M180.591 515.47C179.13 513.82 179.474 514.868 179.904 512.874C181.124 514.25 181.382 513.648 180.591 515.47Z" fill="#B65145"/>
<path fill-rule="evenodd" clip-rule="evenodd" d="M123.694 504.864C125.259 504.262 124.829 504.091 125.602 505.38C124.554 505.809 124.657 507.271 123.694 504.864Z" fill="#B65145"/>
<path fill-rule="evenodd" clip-rule="evenodd" d="M130.949 493.657C130.863 493.313 129.299 493.141 131.981 491.663C132.238 493.141 132.668 492.798 130.949 493.657Z" fill="#B65145"/>
<path fill-rule="evenodd" clip-rule="evenodd" d="M230.594 470.555C232.33 469.334 231.109 469.781 232.846 470.727C231.728 471.328 231.453 471.844 230.594 470.555Z" fill="#B65145"/>
<path fill-rule="evenodd" clip-rule="evenodd" d="M177.154 483.223L179.561 483.137C178.186 484.598 178.014 485.371 177.154 483.223Z" fill="#B65145"/>
<path fill-rule="evenodd" clip-rule="evenodd" d="M131.119 502.871C129.813 504.091 131.549 504.091 128.867 503.3C130.517 501.839 129.383 501.753 131.119 502.871Z" fill="#B65145"/>
<path fill-rule="evenodd" clip-rule="evenodd" d="M205.688 491.749C207.063 490.632 205.945 490.46 207.75 491.405C206.461 492.969 207.75 492.454 205.688 491.749Z" fill="#B65145"/>
<path fill-rule="evenodd" clip-rule="evenodd" d="M171.377 477.104C169.744 477.791 169.916 477.877 169.744 476.158C170.861 476.158 170.604 475.557 171.377 477.104Z" fill="#B65145"/>
<path fill-rule="evenodd" clip-rule="evenodd" d="M187.5 529.943C188.703 529.084 187.156 529.084 189.477 529.771C188.274 531.061 188.703 531.576 187.5 529.943Z" fill="#B65145"/>
<path fill-rule="evenodd" clip-rule="evenodd" d="M182.499 475.11L181.038 475.986L181.124 474.25L182.499 475.11Z" fill="#B65145"/>
<path fill-rule="evenodd" clip-rule="evenodd" d="M124.913 495.375C122.575 495.547 123.865 495.289 123.521 494.516C124.827 494.516 124.037 493.485 124.913 495.375Z" fill="#B65145"/>
<path fill-rule="evenodd" clip-rule="evenodd" d="M226.899 473.047L225.163 472.789C226.04 471.844 226.985 471.672 226.899 473.047Z" fill="#B65145"/>
<path fill-rule="evenodd" clip-rule="evenodd" d="M187.674 527.966L186.023 528.224C186.642 527.107 186.281 526.333 187.674 527.966Z" fill="#B65145"/>
</svg>
