<svg width="389" height="446" viewBox="0 0 389 446" fill="none" xmlns="http://www.w3.org/2000/svg">
<mask id="mask0_302_1901" style="mask-type:luminance" maskUnits="userSpaceOnUse" x="177" y="312" width="212" height="134">
<path d="M177.582 312.431H388.803V445.648H177.582V312.431Z" fill="white"/>
</mask>
<g mask="url(#mask0_302_1901)">
<path fill-rule="evenodd" clip-rule="evenodd" d="M320.717 446.112H316.488C320.201 442.743 324.326 437.311 324.24 429.645C322.178 429.129 303.734 432.997 300.107 434.045C291.048 436.623 286.321 438.772 283.468 446.112H281.061C282.178 442.743 283.811 439.477 286.923 437.311C289.071 435.85 297.614 432.223 300.107 431.793L314.425 429.473C318.465 429.215 325.53 425.932 328.125 427.135C327.953 428.957 324.584 439.993 323.639 441.797C322.779 443.43 321.834 444.909 320.717 446.112ZM292.44 446.112H289.587C289.845 445.94 290.103 445.768 290.36 445.51C292.956 443.774 295.792 442.313 298.388 440.938C300.88 439.649 313.892 434.733 315.543 434.905C315.886 438.772 302.169 439.477 292.44 446.112ZM247.267 446.112H241.234C243.21 442.743 244.07 439.047 243.984 433.615C243.898 429.387 242.781 417.406 241.045 414.381C239.326 415.326 232.347 423.096 230.026 425.244C224.509 430.418 221.741 438.342 221.225 446.112H218.733C218.905 442.399 219.421 439.133 220.366 436.795C223.288 429.559 225.626 425.932 231.487 420.5C244.07 408.777 237.951 413.091 240.787 405.064H242.867C243.382 406.714 243.296 412.662 243.64 415.24C244.156 418.695 244.929 421.703 245.445 424.986C247.525 437.827 244.156 440.508 244.242 446.026C246.648 445.081 249.158 441.54 251.392 439.477C253.816 437.225 256.223 435.162 258.56 432.911C266.055 425.76 269.854 426.018 269.235 418.867C268.204 404.548 264.25 396.796 262.084 386.018C257.34 385.073 252.957 385.761 248.127 385.589C243.64 385.331 238.122 384.128 233.98 382.753C227.087 380.415 226.142 380.071 221.913 374.21C220.538 372.319 216.051 364.463 216.051 362.744C217.599 361.885 241.32 363.69 246.476 362.658C245.703 356.883 244.07 357.055 248.127 351.193C251.135 346.879 253.902 347.996 257.856 345.589C257.942 337.923 264.594 331.443 270.799 327.661C273.635 325.925 277.262 324.12 279.669 322.315C283.897 319.204 282.866 314.89 286.132 314.374C287.094 316.798 286.132 326.011 286.132 329.466C286.579 349.045 280.27 346.363 272.518 361.627C269.063 368.262 263.373 367.832 259.592 372.061C262.686 378.524 268.461 400.251 269.94 408.519C270.627 412.662 270.283 417.492 272.346 421.016C279.583 413.435 291.736 406.37 298.474 398.429C296.394 390.935 286.235 383.096 284.069 373.35C282.178 364.979 291.306 358.945 296.394 354.029C298.818 351.709 299.161 349.045 301.654 348.082C303.218 349.216 302.599 350.334 302.685 352.482C302.857 355.508 303.476 355.078 303.991 357.484C306.312 369.036 311.4 374.038 308.633 387.222C312.259 386.104 314.769 381.532 316.918 378.696C325.719 367.403 326.492 360.166 331.838 347.91C326.062 344.386 324.068 343.441 324.584 336.703C325.014 331.099 326.406 328.263 331.494 325.323C345.796 317.227 350.884 333.179 351.915 334.296C358.464 330.24 369.242 331.615 376.581 328.778C380.019 327.403 381.051 324.98 383.99 325.753C378.043 336.789 369.499 345.332 359.942 352.225C352.001 358 341.051 358.945 331.494 357.828C329.5 360.853 327.266 366.973 325.719 370.583C323.295 375.842 320.545 376.96 318.293 381.016C322.35 381.618 325.186 379.469 330.446 379.899C333.901 380.157 338.989 379.555 342.873 379.555C347.343 379.555 351.227 379.899 355.456 379.641C360.63 379.298 363.896 381.274 368.038 381.618C373.47 378.266 373.04 378.524 379.246 378.008C383.474 382.838 384.935 381.618 386.311 388.356C387.256 393.083 387.875 395.765 383.818 399.821C381.051 402.658 377.269 405.064 373.126 404.806C367.781 404.377 366.319 400.079 363.638 396.968C360.028 402.228 354.425 405.855 351.571 411.544C350.454 413.865 348.993 417.578 348.305 420.07C347.085 424.127 348.735 426.619 345.538 428.012C341.997 422.752 336.823 411.373 336.926 405.511C337.012 393.771 344.592 387.823 351.141 382.22C345.108 380.329 325.358 381.446 319.324 383.526C312.345 385.847 311.142 390.161 305.968 394.476C301.482 398.171 297.339 403.087 292.87 406.37C288.641 409.465 283.725 413.865 279.669 417.492C269.682 426.447 256.996 435.764 247.267 446.112ZM236.404 446.112H233.464C234.496 441.368 233.98 437.913 233.55 432.653C232.863 423.955 238.38 429.473 236.404 446.112ZM199.498 446.112H192.176C193.121 445.682 193.723 446.37 195.957 445.768C203.383 443.688 208.127 432.481 197.951 429.645C189.58 427.221 178.459 437.913 187.26 446.112H183.203C182.086 444.548 181.226 442.571 181.054 440.938C179.679 427.565 202.695 420.672 206.219 434.905C207.526 440.25 203.555 443.516 199.498 446.112ZM220.022 365.065C220.194 365.065 242.351 364.979 243.21 365.151C248.728 366.027 250.963 368.778 255.535 371.889C259.076 374.124 260.967 378.696 260.279 382.563C255.449 378.782 251.135 376.788 245.445 375.069C242.695 374.295 241.148 374.124 238.208 373.092C236.232 372.405 233.464 371.459 231.917 372.405C233.206 374.725 250.361 378.696 255.277 381.876C251.307 384.042 239.154 381.188 234.496 379.727C226.485 377.235 222.772 372.748 220.022 365.065ZM300.45 395.335C296.738 390.075 289.673 380.415 287.438 374.983C284.155 367.403 294.073 356.539 300.536 354.201C301.396 355.765 305.538 369.036 306.312 371.889C307.945 378.18 308.822 385.159 304.249 391.106C303.218 386.792 300.966 375.241 298.646 370.754C297.167 367.918 298.044 369.379 296.566 369.293C293.472 372.233 303.39 379.985 300.45 395.335ZM265.797 348.512C273.463 350.849 274.942 362.744 261.654 368.09C257.512 369.809 257.942 369.981 254.246 367.145C250.791 364.463 249.845 364.721 248.642 360.166C247.869 356.883 248.127 354.82 250.447 351.967C253.816 347.91 260.881 347.051 265.797 348.512ZM364.583 389.302C371.493 373.608 386.053 381.446 384.248 393.255C383.474 398.429 377.527 403.861 372.267 401.798C364.326 398.773 366.663 392.825 365.46 390.505C365.116 389.989 365.116 390.419 364.583 389.302ZM345.194 420.93C335.018 410.152 340.278 391.021 350.97 385.159C353.118 383.956 354.511 383.956 356.659 382.563C358.722 381.446 356.315 381.188 359.942 381.79C361.146 381.962 362.005 382.392 363.036 382.838C356.401 388.442 347.085 392.825 346.741 403.001C349.852 403.603 348.907 402.572 350.11 399.907C352.345 394.991 358.034 387.651 362.607 387.308C363.036 396.452 360.544 396.366 354.596 403.517C348.116 411.201 349.079 413.263 345.194 420.93ZM260.709 345.675C261.654 331.099 276.403 328.263 283.725 321.456C284.929 323.948 284.413 334.984 283.983 338.267C283.038 345.16 277.864 349.646 273.893 354.906L270.455 348.769C271.83 345.761 273.721 342.908 275.543 340.072C277.09 337.562 280.184 334.468 280.013 331.873C277.778 331.443 278.551 331.271 276.747 333.781L268.633 345.933C267.516 346.019 262.256 345.847 260.709 345.675ZM348.649 339.04C346.053 345.589 341.825 348.684 335.19 346.019C328.899 343.527 325.272 341.189 327.609 333.437C329.07 328.435 335.19 324.722 340.192 325.753C343.217 326.269 345.796 327.489 347.429 330.154C349.68 333.866 349.508 334.038 346.827 336.617L348.649 339.04ZM351.485 336.789C355.886 335.156 375.447 330.755 378.043 331.529C371.064 340.158 366.319 345.418 357.003 351.537C351.657 355.078 337.785 357.227 331.838 354.82L334.674 348.598C337.184 349.216 340.708 349.045 343.131 348.082C349.251 345.589 364.24 343.166 363.982 337.923C361.661 337.132 360.2 339.642 357.347 341.017C354.339 342.478 352.946 342.22 350.196 343.166C349.852 341.447 350.626 338.869 351.485 336.789Z" fill="#B65145"/>
</g>
<path fill-rule="evenodd" clip-rule="evenodd" d="M334.761 334.468L336.652 338.181C342.874 337.39 344.507 332.749 338.302 329.809C336.48 331.099 335.792 332.061 334.761 334.468Z" fill="#B65145"/>
<path fill-rule="evenodd" clip-rule="evenodd" d="M255.877 355.249C254.416 363.001 265.194 361.798 261.309 354.733C259.418 354.115 257.682 354.029 255.877 355.249Z" fill="#B65145"/>
<path fill-rule="evenodd" clip-rule="evenodd" d="M189.236 435.678C189.15 437.827 189.322 437.827 190.629 439.649L195.098 438.686C195.528 435.076 195.957 435.248 193.207 432.825C191.316 434.045 190.629 433.959 189.236 435.678Z" fill="#B65145"/>
<path fill-rule="evenodd" clip-rule="evenodd" d="M371.838 390.848C374.072 392.739 373.213 392.567 375.963 392.567C378.731 389.989 377.871 386.705 373.987 386.448C371.666 387.995 372.01 388.253 371.838 390.848Z" fill="#B65145"/>
<path fill-rule="evenodd" clip-rule="evenodd" d="M224.68 441.11C226.141 441.454 225.711 442.141 227.86 439.993C229.493 438.256 228.891 438.6 227.688 437.569C226.313 438.6 225.023 439.563 224.68 441.11Z" fill="#B65145"/>
<path fill-rule="evenodd" clip-rule="evenodd" d="M295.105 362.486C296.567 363.087 298.732 362.486 299.85 361.282L299.162 360.251C297.34 360.062 296.309 360.938 295.105 362.486Z" fill="#B65145"/>
<mask id="mask1_302_1901" style="mask-type:luminance" maskUnits="userSpaceOnUse" x="221" y="440" width="10" height="6">
<path d="M221.586 440.044H230.387V445.648H221.586V440.044Z" fill="white"/>
</mask>
<g mask="url(#mask1_302_1901)">
<path fill-rule="evenodd" clip-rule="evenodd" d="M225.97 444.651C228.376 443.688 229.579 443.344 229.751 440.508C227.775 441.282 226.915 442.485 225.97 444.651Z" fill="#B65145"/>
</g>
<path fill-rule="evenodd" clip-rule="evenodd" d="M240.355 369.637C241.49 368.949 240.957 368.519 239.839 367.574C239.152 369.035 238.98 369.551 240.355 369.637Z" fill="#B65145"/>
<path fill-rule="evenodd" clip-rule="evenodd" d="M242.694 369.723C242.265 370.582 243.124 372.06 243.554 370.41C243.983 368.691 243.038 369.121 242.694 369.723Z" fill="#B65145"/>
<path fill-rule="evenodd" clip-rule="evenodd" d="M344.763 411.286L344.935 408.519C343.731 410.323 343.903 409.808 344.763 411.286Z" fill="#B65145"/>
<mask id="mask2_302_1901" style="mask-type:luminance" maskUnits="userSpaceOnUse" x="0" y="167" width="275" height="279">
<path d="M0 167.217H274.391V445.647H0V167.217Z" fill="white"/>
</mask>
<g mask="url(#mask2_302_1901)">
<path fill-rule="evenodd" clip-rule="evenodd" d="M162.781 406.198C141.226 427.049 99.0608 420.586 67.1749 421.703C63.8058 421.875 60.5226 422.322 57.1708 422.15C52.1687 421.789 33.3809 425.416 28.7226 426.877C23.5487 428.613 14.5759 432.567 10.0895 433.34C19.7499 424.385 33.295 422.408 45.5337 418.781C48.4558 417.835 51.739 417.234 54.7471 416.443C68.8078 412.833 80.273 404.634 100.367 402.743C108.291 402.056 113.122 402.657 120.96 403.861C128.111 404.978 130.019 406.542 142.687 408.261C150.783 409.378 155.355 407.402 162.781 406.198ZM-4.38378 446.112H-6.61837C-6.18865 445.51 -5.75891 444.908 -5.32918 444.376C-2.23513 440.336 0.618277 437.311 3.88423 433.529C19.2342 415.927 24.2362 412.747 44.932 402.228C49.1434 400.079 52.3406 399.546 56.3972 397.827C71.73 391.278 99.4906 380.672 111.746 370.926C124.329 360.853 137.771 358.43 151.402 337.046L149.494 334.21C145.179 336.616 144.664 342.822 129.503 352.224C110.01 364.291 107.432 366.199 85.7048 374.381C78.1244 377.235 70.7846 380.758 63.2901 384.041C30.9572 398.257 9.05818 414.982 -8.44043 442.141V435.42C-0.670907 419.554 2.16531 413.607 3.79828 396.624C4.84683 386.19 4.48585 380.672 -0.584965 371.803C-1.71945 369.809 -2.23513 366.199 -7.32313 368.09C-7.58097 370.926 -3.61026 373.092 -3.52432 375.412C-3.35243 378.782 -7.32313 379.985 -7.49502 384.299C-7.66691 387.995 -4.21189 399.202 -6.53243 418.093C-6.8934 421.273 -7.40908 424.213 -7.92475 427.393C-7.92475 427.65 -8.18259 428.785 -8.44043 430.16V412.49C-7.75286 405.15 -7.66691 397.999 -8.44043 392.224V379.641H-8.35448C-6.61838 378.438 -6.27459 377.32 -5.75891 375.842L-8.44043 371.459V366.199C-4.89945 364.033 1.30585 366.629 3.88423 368.949C7.4252 372.232 10.0895 378.008 13.9743 380.844C15.0916 373.006 4.67493 358.773 -0.756857 353.428C-3.00864 351.193 -5.58702 349.388 -8.44043 347.738V345.503C-7.83881 345.761 -7.32313 346.105 -6.72151 346.363C3.54044 352.138 15.6932 368.777 16.398 381.962C16.398 382.924 21.486 401.454 21.8298 402.142C26.2989 398.601 29.0664 384.213 29.0664 378.352C28.8945 367.316 21.8298 349.56 15.3494 340.243C3.88423 323.604 3.79828 321.198 0.274495 302.651C-1.46161 293.695 -0.670906 289.037 2.42315 280.322C6.73764 268.427 12.5132 258.165 9.57385 245.411C8.80034 241.784 5.62034 238.69 6.82358 236.094C9.31602 236.971 10.0895 240.666 11.5678 242.918C13.1148 245.153 15.2635 247.662 16.9996 249.811C20.6093 254.383 23.2908 258.784 26.7287 263.339C40.0159 281.009 44.0726 287.404 43.7976 309.372C43.7116 315.336 43.8835 320.407 44.2445 326.372C44.5883 332.233 48.198 354.201 50.9654 358.344C53.2 350.763 57.1708 342.736 60.0929 335.413C63.2042 327.747 65.6106 321.112 69.0657 313.686C73.638 304.043 86.994 292.389 94.4026 276.368C85.5329 272.655 82.7655 261.792 80.7028 253.266C74.7553 227.998 95.623 178.596 114.067 171.188C120.702 176.19 125.188 172.649 127.165 172.391C128.558 174.643 127.251 174.643 129.245 176.104L134.419 168.506C137.169 169.641 136.654 171.531 140.366 173.078C144.062 174.643 144.75 173.336 147.173 173.938C147.259 177.737 146.228 178.596 149.924 181.621C154.066 184.973 154.152 184.2 158.553 185.231C162.781 194.462 166.391 189.718 171.823 192.571C171.135 197.401 169.502 201.612 167.766 206.185C172.768 208.609 173.026 206.958 176.653 208.437C176.309 214.728 152.004 254.985 146.4 261.104C137.771 270.593 128.197 277.486 114.841 279.205C102.086 280.838 103.289 281.009 99.1468 288.607C95.0214 296.273 81.1325 305.504 70.8705 332.577C67.1749 342.306 62.8604 351.966 60.007 361.885C58.4599 367.144 55.9675 371.975 53.5438 376.874C51.3092 381.36 47.7683 385.932 45.7056 390.419C49.2293 390.075 67.5187 380.415 72.6926 378.18C81.3044 374.553 90.2771 370.668 98.9749 367.316C111.471 362.4 141.57 345.331 147.603 332.147C148.978 329.036 147.947 326.973 148.892 323.604C149.752 320.854 150.439 318.087 151.316 315.336C154.754 303.338 172.596 282.574 182.085 275.853C188.72 271.108 227 247.387 232.862 248.78C233.205 252.132 231.4 254.555 234.065 257.821C237.95 257.563 243.295 252.303 247.954 251.788C248.899 254.383 247.352 255.93 249.759 258.079C252.079 260.245 254.417 260.159 256.909 261.276C257.081 263.683 256.651 265.677 257.855 267.825C259.849 271.28 260.88 269.63 263.544 271.108C264.163 273.687 263.63 277.572 265.023 280.236C266.827 283.433 272.001 284.293 273.462 286.785C271.4 291.959 256.05 298.955 255.104 302.823L258.817 304.816C257.425 314.546 257.425 311.795 263.733 317.915C261.653 321.284 244.757 326.372 238.036 329.294C221.912 336.445 201.56 341.017 183.975 342.306C173.284 343.08 168.385 346.449 153.121 338.524C149.408 343.956 142.257 352.396 137.169 356.281L101.141 379.555C92.7696 384.643 54.2314 399.821 43.8835 404.376C34.1544 408.691 14.2321 421.789 8.88628 430.676C11.4819 429.816 16.1401 426.103 19.1482 424.642C25.6114 421.531 43.7116 417.148 51.2233 415.24C65.6966 411.544 78.9838 404.29 94.2307 401.712C103.203 400.165 116.044 400.165 124.587 402.4C126.65 402.915 128.815 403.689 130.964 404.29C143.117 407.573 154.152 407.831 166.133 402.915C176.051 398.945 176.825 392.911 184.061 386.878L185.798 388.872C184.938 392.739 159.326 424.728 144.75 430.16C128.111 436.279 138.029 434.561 118.811 437.139C107.002 438.686 102.43 438.514 90.6209 436.967C71.73 434.561 51.4811 432.223 32.4183 432.395C26.0411 432.481 11.9975 436.193 6.22196 439.047C3.97017 440.164 2.3372 441.539 0.446387 442.485C-3.35243 444.462 -2.23513 443 -4.38378 446.112ZM172.167 402.915C167.164 412.146 151.402 425.932 141.57 429.816C129.761 434.475 116.645 437.139 103.633 436.709C92.5977 436.365 79.1557 432.481 61.4852 431.793C54.6611 431.535 47.6823 430.676 40.8754 430.418C26.2989 429.73 27.1756 431.793 21.2969 431.879C27.1756 427.84 50.3638 424.728 58.374 424.041C83.3671 421.617 113.981 425.674 137.771 420.586C142.859 419.468 151.23 416.357 155.355 413.435C158.209 411.544 160.873 410.238 163.555 408.089C166.133 406.026 168.729 403.173 172.167 402.915ZM12.2554 248.694C17.6872 253.782 20.5234 273.773 21.6579 281.456C22.4314 287.06 22.0876 293.179 22.8611 298.955C25.2676 316.024 26.213 318.001 29.1524 333.093C30.2697 338.782 32.3324 344.386 33.1231 350.162C33.8966 356.195 34.842 361.111 35.3577 367.316C35.6155 371.098 33.0371 385.073 31.4729 386.19C31.301 384.815 31.6448 379.727 31.5588 377.406C30.6134 355.679 14.7478 337.665 7.68304 322.831C4.48585 316.024 2.68098 305.676 1.73558 298.078C1.13396 293.007 1.56368 293.523 2.16531 288.693C3.02477 282.488 6.90953 274.031 9.40196 268.083C13.0289 259.299 11.31 256.618 12.2554 248.694ZM1.2199 369.895C3.62639 371.356 11.7397 381.188 13.7165 383.784C17.0855 387.995 18.4607 394.819 19.492 400.165C21.2969 409.035 15.6932 411.114 10.3646 416.099C7.94088 418.351 -1.71945 429.473 -3.18053 430.246C2.3372 418.093 2.07936 416.718 5.10466 405.597C6.65169 400.165 6.82358 384.127 3.97017 376.788C2.93882 374.209 1.2199 372.49 1.2199 369.895ZM17.5153 253.696C20.3515 255.93 26.1271 265.333 29.0664 269.029C38.1939 280.408 41.3051 289.123 42.0786 303.08C42.2505 306.707 41.9067 309.286 41.8208 312.827C41.563 336.96 48.6277 354.82 48.6277 358.601C48.4558 369.121 34.4122 395.507 29.0664 399.821C28.8086 398.429 32.9512 390.762 33.5528 388.442C36.475 376.014 38.5548 372.232 36.5609 359.375C32.1605 331.786 25.6973 321.456 23.6346 289.381C23.2908 283.089 21.7438 268.857 19.7499 262.737C18.8904 259.987 17.4293 256.532 17.5153 253.696ZM34.1544 397.054C49.9341 370.926 51.8249 360.509 63.2042 333.608C68.55 320.854 68.2062 315.938 78.3822 303.768C85.5329 295.156 90.7069 286.441 96.5684 276.884L101.656 280.064C98.3733 286.097 96.3965 288.779 92.2539 294.211C89.0739 298.267 85.1032 302.479 82.1638 306.535C75.271 316.454 70.6987 327.833 66.4701 339.04C64.3215 344.644 61.3134 350.419 59.4913 356.109C55.0909 369.981 52.5125 375.67 44.1585 387.651C41.563 391.278 43.4538 392.138 40.9613 393.771C38.8986 395.163 36.389 396.882 34.1544 397.054ZM116.559 174.557L109.581 187.053C111.918 184.716 117.608 177.393 118.21 174.986L123.813 175.674C121.647 179.799 109.667 190.749 110.698 194.977C112.692 194.977 113.122 192.485 114.497 190.491C116.731 187.311 123.899 178.252 126.65 176.276C128.901 180.504 127.853 180.332 133.027 182.309L126.65 193.602C123.727 191.626 126.564 191.196 123.641 189.975L100.178 231.539C95.7949 240.752 93.715 242.746 91.1366 253.077C88.8848 261.878 93.1134 266.966 92.4258 272.57C88.2832 268.943 89.1599 269.888 88.9708 264.731C88.8848 258.784 87.3378 255.157 88.541 247.301C88.8848 244.637 90.535 241.182 88.9708 238.861C84.3297 245.239 87.9394 261.362 87.6816 265.849C78.3822 252.991 81.4763 232.312 85.8767 217.994C89.5896 205.669 97.0841 189.03 105.782 179.37C108.893 175.932 111.746 172.907 116.559 174.557ZM172.854 340.931C175.106 339.642 194.066 334.726 204.156 330.239C208.126 328.52 210.963 328.52 214.761 326.887C221.74 323.948 228.805 322.487 235.715 319.204C238.723 317.743 243.983 316.024 245.616 314.116C248.813 310.678 251.22 310.162 255.276 307.825C257.597 311.709 255.362 313.772 260.278 317.915C256.823 321.284 244.413 324.636 239.325 326.715C235.801 328.091 232.518 329.981 229.063 331.357C226.141 332.491 221.654 333.694 218.371 334.554C210.619 336.788 179.334 342.306 172.854 340.931ZM242.006 303.768C244.069 301.963 248.555 298.869 251.134 298.164C251.735 298.869 254.675 304.902 255.448 306.363L247.008 311.022C245.272 309.2 242.694 306.106 242.006 303.768ZM240.528 302.479L239.411 296.875L235.268 294.555C237.09 292.836 241.834 290.67 244.155 289.81C245.874 291.615 243.725 290.24 249.071 295.5C250.274 296.703 249.587 295.758 250.102 296.703C247.524 298.439 243.467 302.049 240.528 302.479ZM203.812 293.351C207.439 294.211 222.084 282.058 227.086 282.144C227.602 283.347 228.461 287.576 228.805 289.123C225.625 291.873 208.814 298.955 215.363 297.82C217.769 297.391 227.945 292.131 229.836 290.928L234.323 295.93C234.409 296.016 235.096 297.047 235.096 297.047L235.715 298.611C234.409 298.869 228.031 302.393 226.055 303.252C222.6 304.645 219.506 306.621 216.222 307.395C217.598 309.819 221.31 306.879 226.484 304.387C228.891 303.166 235.629 299.814 237.95 299.643C238.465 305.504 243.295 307.567 244.757 312.139C231.057 320.579 215.879 323.862 201.216 329.294C193.894 332.061 186.743 334.382 179.334 336.788C170.791 339.47 162.351 341.533 154.066 336.616C157.263 334.382 168.213 336.101 172.51 330.583C169.33 330.153 166.907 332.921 162.695 333.351C153.808 334.21 156.834 336.015 151.66 333.007C155.184 326.372 164.93 319.891 166.305 316.024C160.959 320.149 151.23 329.724 150.869 329.895C146.142 318.774 172.94 300.072 181.225 295.586C188.462 291.529 213.644 272.226 218.543 271.452C219.42 273.085 219.677 274.46 220.967 276.196C222.342 278.173 223.717 278.861 224.765 280.752C221.482 284.55 205.875 290.498 203.812 293.351ZM159.154 305.074C165.875 292.389 180.452 278.603 192.69 271.366C199.583 267.31 225.453 250.327 230.627 251.616L231.143 254.727C227.86 257.821 217.34 260.245 212.338 264.645C214.246 265.075 224.594 259.299 231.057 257.306L236.403 265.591C234.838 266.88 233.033 268.685 231.315 268.685C232.604 271.194 235.887 267.825 237.95 266.622C239.583 269.544 238.207 269.716 239.497 271.796C240.958 274.117 241.748 272.913 243.209 275.32C241.491 277.4 238.895 278.517 236.66 280.236C234.58 281.972 232.088 284.293 229.492 284.636L230.111 280.064C226.398 278.603 225.883 279.72 223.115 275.939C220.365 272.14 221.74 272.827 221.482 269.114C218.904 267.997 219.076 268.513 216.738 269.802C210.275 273.257 206.132 276.712 199.583 280.752L187.345 289.295C181.741 293.265 176.223 296.016 170.448 299.814C164.672 303.596 160.186 309.475 154.84 313.686C154.41 311.108 156.473 310.334 158.467 308.254C165.875 300.588 173.37 292.578 182.514 287.146C184.577 285.926 191.487 281.886 192.261 280.408C189.493 280.15 178.114 288.521 175.192 290.842C168.729 295.844 162.162 304.215 159.154 305.074ZM235.543 261.018C235.887 258.079 244.241 254.727 245.96 254.469C248.555 259.214 247.094 259.643 253.385 262.308C251.821 264.198 247.266 266.192 246.561 267.997C249.243 268.255 251.392 264.473 255.362 264.473C255.448 267.482 257.339 269.716 258.645 272.226C256.394 274.374 252.956 274.632 253.042 276.97C256.823 276.97 258.13 273.429 261.739 273.515L263.115 280.15C258.645 284.464 259.247 281.095 259.505 283.949L263.905 282.144C265.71 283.605 269.767 286.183 270.454 287.662C268.46 289.81 256.823 299.127 253.471 299.213L254.675 294.898C252.251 292.303 253.557 296.617 246.647 290.756L246.836 286.785C245.616 286.699 235.715 291.529 233.979 292.475L230.369 288.263C232.948 284.121 244.671 278.001 246.218 274.976C245.186 272.913 242.436 272.57 240.786 270.507C239.067 267.052 241.576 265.591 241.319 262.909C238.809 262.05 237.864 263.941 235.543 261.018ZM121.046 216.533C125.188 214.642 129.417 203.521 131.823 199.378C138.115 204.638 130.276 203.263 145.97 207.044C142.945 213.421 129.761 232.312 129.847 233.773C131.738 233.773 137.771 224.027 138.974 222.05C142.085 217.134 144.922 212.648 147.861 207.56C152.347 211.531 154.496 213.593 160.787 214.9C156.559 224.285 141.312 248.006 135.021 256.962C131.566 261.878 125.274 269.2 120.272 272.312C116.216 274.718 105.782 278.947 101.227 277.486C103.547 275.148 105.438 275.148 107.604 273.773C109.924 272.226 110.612 269.286 113.379 267.825L112.434 266.192C108.205 269.888 107.604 273.515 101.399 274.288L104.922 267.052C102.516 268.513 100.711 272.312 99.5765 274.89C95.623 270.249 101.313 259.815 99.4046 257.048C96.3106 259.214 96.8262 269.974 96.7403 273.945C92.9415 271.71 91.9101 260.503 92.3399 256.446C93.1134 249.123 96.3965 241.612 100.264 235.149C104.407 228.256 107.26 220.589 111.557 213.954C115.614 207.646 119.757 200.237 123.641 193.688C126.735 195.665 126.392 196.181 130.706 198.089L121.046 216.533ZM166.563 208.609C168.557 208.437 172.081 209.296 174.332 209.984C167.766 224.371 158.209 240.494 149.58 253.61C146.572 258.165 139.06 266.364 135.021 269.286C131.308 271.796 121.39 276.884 117.075 276.54C118.725 274.718 124.243 272.655 131.394 264.645C137.599 257.649 149.666 237.229 155.613 228.256L166.563 208.609ZM150.697 193.173C153.637 195.149 154.496 198.003 158.725 200.323C157.607 202.575 155.27 204.982 156.662 206.958L160.873 200.925C165.446 206.271 166.477 207.302 161.905 213.25C151.144 211.015 150.439 206.099 147.861 204.036C143.461 205.411 143.976 205.239 139.232 203.263L150.697 193.173ZM157.178 187.913C158.381 188.944 161.389 192.055 161.905 193.001C160.873 194.806 159.756 195.407 160.1 197.057C161.99 195.235 162.076 195.063 163.039 192.743L169.588 194.204C168.213 197.745 168.127 200.065 165.961 204.208C163.555 202.489 163.641 201.698 162.953 199.12C160.014 198.089 159.928 199.464 156.662 196.782C155.184 195.579 154.152 194.118 152.949 192.657L157.178 187.913ZM155.184 187.741L153.894 190.405C153.808 190.491 153.551 190.405 153.551 190.405H152.777C152.691 190.405 152.519 190.405 152.433 190.405C151.402 190.491 138.287 201.441 137.341 202.386C133.714 199.808 134.849 199.12 132.855 195.923C130.362 195.579 130.62 196.61 128.558 194.892C128.987 188.944 134.849 186.28 134.849 180.418C132.253 180.676 132.339 180.418 129.761 179.284L134.591 171.617C135.88 172.563 137.169 173.766 138.544 174.471C141.57 175.932 141.398 174.557 143.031 176.619C142.515 179.456 140.796 182.997 138.888 185.145C141.57 185.403 143.461 179.713 144.664 177.479C147.002 180.418 145.008 180.246 149.064 183.083C150.096 183.856 151.23 184.63 152.261 185.317L155.184 187.741Z" fill="#B65145"/>
</g>
<path fill-rule="evenodd" clip-rule="evenodd" d="M92.8574 410.151C98.1173 410.323 101.658 408.003 107.864 407.831C110.184 407.831 111.92 408.776 113.467 407.745C113.038 407.057 114.842 406.456 108.637 406.456C106.145 406.456 94.2326 408.776 92.8574 410.151Z" fill="#B65145"/>
<path fill-rule="evenodd" clip-rule="evenodd" d="M142.945 227.825C145.094 227.138 146.83 223.855 148.205 222.05C149.58 220.245 152.606 216.36 150.096 214.899C149.151 216.79 143.031 227.052 142.945 227.825Z" fill="#B65145"/>
<path fill-rule="evenodd" clip-rule="evenodd" d="M9.57401 291.272C10.6226 290.412 14.8339 282.918 14.748 281.886C12.5993 282.574 9.48806 289.209 9.57401 291.272Z" fill="#B65145"/>
<path fill-rule="evenodd" clip-rule="evenodd" d="M12.1699 300.932C13.2872 298.697 16.0547 294.125 15.7796 291.959C14.2326 293.007 11.5683 298.869 12.1699 300.932Z" fill="#B65145"/>
<path fill-rule="evenodd" clip-rule="evenodd" d="M95.4512 413.349L107.26 411.458C106.659 410.324 107.346 410.582 105.008 410.942C102.172 411.372 97.5139 411.802 95.4512 413.349Z" fill="#B65145"/>
<path fill-rule="evenodd" clip-rule="evenodd" d="M36.1311 310.334C37.936 309.028 37.1625 308.684 37.4203 306.793C37.8501 303.768 39.2424 305.418 37.5922 303.081C35.5295 304.473 37.5922 303.682 36.8187 306.278C36.2171 308.426 35.0998 307.481 36.1311 310.334Z" fill="#B65145"/>
<path fill-rule="evenodd" clip-rule="evenodd" d="M112.865 230.765C114.842 230.851 115.53 227.998 116.045 226.021C113.983 227.224 113.639 228.341 112.865 230.765Z" fill="#B65145"/>
<path fill-rule="evenodd" clip-rule="evenodd" d="M11.3096 294.211C13.5442 292.664 15.5209 288.607 15.8819 285.668L11.3096 294.211Z" fill="#B65145"/>
<path fill-rule="evenodd" clip-rule="evenodd" d="M103.548 206.012C105.439 205.84 106.143 203.692 105.439 201.956C103.978 203.004 103.548 204.207 103.548 206.012Z" fill="#B65145"/>
<path fill-rule="evenodd" clip-rule="evenodd" d="M251.221 314.632C251.221 314.632 251.307 314.718 251.221 314.804L251.307 314.89C251.307 314.89 249.846 315.165 251.221 314.632ZM250.276 316.454C252.441 314.975 253.043 315.852 253.215 313.858C251.823 314.202 249.244 314.546 250.276 316.454Z" fill="#B65145"/>
<path fill-rule="evenodd" clip-rule="evenodd" d="M242.436 283.433C244.498 283.605 246.217 283.003 245.873 280.666L242.436 283.433Z" fill="#B65145"/>
<path fill-rule="evenodd" clip-rule="evenodd" d="M123.384 246.012C125.188 244.808 125.618 244.722 124.157 243.004C122.954 244.465 122.593 244.293 123.384 246.012Z" fill="#B65145"/>
<path fill-rule="evenodd" clip-rule="evenodd" d="M126.135 241.009C128.558 241.439 129.676 240.494 127.424 238.775L126.135 241.009Z" fill="#B65145"/>
<path fill-rule="evenodd" clip-rule="evenodd" d="M107.347 199.378C108.894 198.518 108.894 198.948 108.206 196.971C106.573 197.487 106.401 197.659 107.347 199.378Z" fill="#B65145"/>
<path fill-rule="evenodd" clip-rule="evenodd" d="M74.0674 382.649L75.0128 384.299L76.4739 382.391C74.9268 382.047 75.2706 381.618 74.0674 382.649Z" fill="#B65145"/>
<path fill-rule="evenodd" clip-rule="evenodd" d="M117.436 222.738L119.842 221.792L118.209 219.987L117.436 222.738Z" fill="#B65145"/>
<path fill-rule="evenodd" clip-rule="evenodd" d="M68.3797 386.878C70.0986 386.362 70.1846 386.62 69.8408 384.815C68.0359 385.245 68.2078 385.073 68.3797 386.878Z" fill="#B65145"/>
<path fill-rule="evenodd" clip-rule="evenodd" d="M205.274 302.307C207.165 302.479 208.3 302.135 208.214 300.244L205.274 302.307Z" fill="#B65145"/>
<path fill-rule="evenodd" clip-rule="evenodd" d="M137.256 200.323C138.717 199.378 138.545 199.549 137.772 197.917C136.482 198.776 136.654 198.948 137.256 200.323Z" fill="#B65145"/>
<path fill-rule="evenodd" clip-rule="evenodd" d="M136.827 191.54C137.257 189.546 137.772 190.577 136.053 189.03C135.624 191.196 135.194 190.233 136.827 191.54Z" fill="#B65145"/>
<path fill-rule="evenodd" clip-rule="evenodd" d="M169.33 314.116C170.963 313.944 170.963 314.632 170.533 312.311C168.556 313.257 169.33 312.225 169.33 314.116Z" fill="#B65145"/>
<path fill-rule="evenodd" clip-rule="evenodd" d="M192.089 299.127C193.636 299.471 194.839 298.783 194.753 297.219L192.089 299.127Z" fill="#B65145"/>
<path fill-rule="evenodd" clip-rule="evenodd" d="M249.242 280.408C250.531 279.463 250.273 279.635 249.499 278.431C248.124 279.377 247.866 278.861 249.242 280.408Z" fill="#B65145"/>
<path fill-rule="evenodd" clip-rule="evenodd" d="M206.478 268.599C208.386 268.169 207.784 268.255 207.784 266.88C206.22 267.396 206.134 266.88 206.478 268.599Z" fill="#B65145"/>
<path fill-rule="evenodd" clip-rule="evenodd" d="M134.677 194.977C135.021 193 135.537 194.117 133.887 192.57C133.457 194.547 133.113 193.602 134.677 194.977Z" fill="#B65145"/>
<path fill-rule="evenodd" clip-rule="evenodd" d="M176.139 310.764C176.053 309.113 177.084 310.334 175.193 309.199C174.506 310.85 174.334 310.764 176.139 310.764Z" fill="#B65145"/>
<path fill-rule="evenodd" clip-rule="evenodd" d="M177.512 329.036C175.449 328.176 176.91 328.348 175.707 329.294C176.996 330.669 176.652 330.497 177.512 329.036Z" fill="#B65145"/>
<path fill-rule="evenodd" clip-rule="evenodd" d="M80.2743 382.134L80.4462 380.071C78.6414 380.844 78.3835 380.758 80.2743 382.134Z" fill="#B65145"/>
<path fill-rule="evenodd" clip-rule="evenodd" d="M227.516 272.999C229.406 272.742 228.633 273.257 228.633 271.366C226.312 272.57 227.43 271.71 227.516 272.999Z" fill="#B65145"/>
<path fill-rule="evenodd" clip-rule="evenodd" d="M198.294 296.617C200.529 295.5 199.326 296.617 199.068 294.984C197.607 295.844 197.607 295.07 198.294 296.617Z" fill="#B65145"/>
<path fill-rule="evenodd" clip-rule="evenodd" d="M95.2812 282.402L96.1407 284.035C97.0861 281.972 97.258 282.058 95.2812 282.402Z" fill="#B65145"/>
<path fill-rule="evenodd" clip-rule="evenodd" d="M102.087 249.897C101.916 251.701 101.4 250.326 102.689 251.358C103.978 250.24 103.72 249.983 102.087 249.897Z" fill="#B65145"/>
<path fill-rule="evenodd" clip-rule="evenodd" d="M105.008 244.379L106.83 244.98L106.228 243.261L105.008 244.379Z" fill="#B65145"/>
<path fill-rule="evenodd" clip-rule="evenodd" d="M197.263 335.585C196.747 336.444 196.833 336.101 197.778 336.96C198.638 334.983 198.896 335.585 197.263 335.585Z" fill="#B65145"/>
<path fill-rule="evenodd" clip-rule="evenodd" d="M116.303 262.479L115.186 261.276C114.67 263.253 114.756 263.167 116.303 262.479Z" fill="#B65145"/>
<path fill-rule="evenodd" clip-rule="evenodd" d="M117.609 258.508C118.555 260.416 117.523 259.557 118.985 259.213C117.953 257.047 118.727 258.251 117.609 258.508Z" fill="#B65145"/>
<path fill-rule="evenodd" clip-rule="evenodd" d="M209.158 310.936C210.877 311.795 210.361 311.709 211.049 310.076L209.158 310.936Z" fill="#B65145"/>
<path fill-rule="evenodd" clip-rule="evenodd" d="M181.569 326.887C181.312 327.317 182.171 328.606 182.343 327.145C182.601 325.925 182.085 325.581 181.569 326.887Z" fill="#B65145"/>
<path fill-rule="evenodd" clip-rule="evenodd" d="M203.212 335.241C203.556 333.351 203.728 334.812 202.783 333.609C202.353 335.156 201.751 334.21 203.212 335.241Z" fill="#B65145"/>
<path fill-rule="evenodd" clip-rule="evenodd" d="M203.383 270.249L205.274 269.372C204.07 269.2 203.898 269.028 203.383 270.249Z" fill="#B65145"/>
<path fill-rule="evenodd" clip-rule="evenodd" d="M202.609 314.374C203.899 314.718 203.641 314.546 204.242 313.342L202.609 314.374Z" fill="#B65145"/>
<path fill-rule="evenodd" clip-rule="evenodd" d="M101.313 211.444C101.141 211.788 101.656 212.648 101.914 211.616C102.086 210.757 101.742 210.585 101.313 211.444Z" fill="#B65145"/>
<mask id="mask3_302_1901" style="mask-type:luminance" maskUnits="userSpaceOnUse" x="0" y="0" width="169" height="238">
<path d="M0 0H168.781V237.623H0V0Z" fill="white"/>
</mask>
<g mask="url(#mask3_302_1901)">
<path fill-rule="evenodd" clip-rule="evenodd" d="M-8.44043 234.547V232.484C-3.78216 230.851 0.188549 229.115 0.876117 227.998C-0.670909 227.31 -4.38377 226.966 -8.44043 226.794V224.629C-5.84486 224.99 -3.26648 225.247 -0.756857 225.591C7.51115 226.709 11.224 224.543 11.6537 226.966C10.8802 227.482 -5.15729 233.172 -8.44043 234.547ZM-8.44043 206.872V204.981C-2.23512 207.646 4.48585 209.296 11.9975 209.812C25.6973 210.671 52.2546 206.528 65.6966 201.011C61.0555 198.518 24.3222 198.432 15.2635 196.971C2.16531 194.891 4.48585 195.407 -8.44043 191.711V189.889L1.73558 193.086C7.25331 194.805 35.3577 198.26 39.7581 196.782C37.5063 195.063 25.0098 192.829 21.3828 191.969C12.771 189.717 1.99342 185.403 -8.44043 182.825V181.449C-6.01675 182.051 -3.35243 182.825 -0.241181 183.77C4.14207 185.145 8.19872 186.709 12.5132 187.998C24.9238 191.539 25.1816 191.969 38.383 194.891C42.1646 195.751 47.7683 197.659 51.5671 197.659C56.4832 197.745 60.4367 198.26 65.1809 198.776C67.5186 199.12 69.5814 199.893 71.9019 199.807C74.4975 199.722 76.9899 198.432 78.3822 200.151C75.4429 202.042 66.0404 202.833 62.0869 204.122C56.741 205.841 51.1373 207.216 45.6196 208.522C29.2383 212.218 7.68304 213.421 -8.44043 206.872ZM-8.44043 170.414V168.42C3.11071 163.091 13.9743 158.003 26.2989 148.515C26.0411 136.792 7.4252 116.612 7.76899 94.7127C7.94088 87.0463 8.97223 78.8642 12.3413 71.9542C14.1462 68.2585 21.9157 53.1664 25.2676 52.221C25.5254 52.7366 25.0098 61.2625 25.1816 62.9986C26.4708 75.3233 31.4729 87.0463 33.8106 99.1991C34.5841 103.256 36.2171 107.14 37.0766 111.438C38.5548 118.52 39.1565 126.788 36.8187 133.767C36.1312 136.19 36.475 136.62 35.0139 139.026L31.9886 143.599C41.8208 138.511 54.2314 116.87 57.4286 105.662C58.374 102.138 58.8897 98.4255 58.374 94.6267C58.0302 91.7905 58.288 93.8532 59.2335 91.4467C59.2335 86.8744 46.7369 71.7823 62.5166 40.8417C64.9231 36.1834 74.4975 23.0853 78.3822 19.5443L95.1073 5.0538C96.9122 3.24893 97.4279 1.01434 99.8343 1.87379C99.9203 3.42082 97.6857 6.10234 96.9981 7.82126C91.7382 20.3178 87.3378 37.3867 84.3297 50.313C81.2184 64.2878 77.0758 80.9269 65.6106 90.931L60.9696 96.3628C60.8664 98.8553 59.921 103.771 60.1789 105.49C88.7129 85.7571 111.918 94.8846 138.974 91.8765C147.947 90.8451 145.351 91.5327 151.574 91.1889C155.184 91.017 161.733 86.8744 164.414 89.4528C160.358 92.1343 154.84 92.1343 149.838 94.0251C133.199 100.402 122.077 114.205 108.377 119.723C91.7382 126.444 71.3862 124.123 58.5459 110.75C56.9129 112.211 55.1768 117.127 54.0595 119.379C51.3952 125.155 47.1666 130.587 43.3678 135.675C41.3911 138.253 37.7641 141.106 36.389 143.599C38.8127 144.114 41.563 142.997 43.9694 142.653C50.6217 141.622 57.7724 142.224 64.4074 142.997C73.3802 144.2 81.3044 146.968 90.1912 148.859C103.032 151.437 116.044 154.978 129.159 156.181C133.37 156.525 140.71 155.494 142.257 157.488C137.943 158.605 132.425 158.003 127.165 158.863C116.645 160.496 98.9749 169.125 81.1325 169.125C73.2083 169.125 60.6086 169.125 53.3719 166.099C48.7996 164.123 45.1899 162.215 40.9613 159.464C35.7874 156.009 33.8966 153.001 29.5821 149.374C27.2615 150.062 25.5254 151.609 23.3768 153.001C16.4839 157.574 9.91764 161.613 2.42315 165.24L-8.44043 170.414ZM25.6114 137.737L14.2321 115.58C8.28466 104.029 8.45655 89.6247 11.8256 77.6438C12.9429 73.9481 17.6012 63.7721 20.6953 61.3484C21.3828 65.3191 18.5466 75.5811 17.7731 79.3799C15.0916 91.1889 16.7417 96.0191 18.8045 107.57C19.8358 113.432 23.8925 124.983 25.6114 135.159V137.737ZM29.1524 143.599C27.9491 140.058 26.5568 128.335 24.58 121.356C20.6093 107.312 22.1735 114.205 19.492 99.7147C17.6872 89.6247 17.1715 89.5387 19.3201 79.4658L22.1735 65.1472C22.6033 62.5689 21.7438 62.311 23.033 60.1452C24.0643 63.3424 24.0643 67.6569 24.9238 71.2666C25.8692 75.2373 26.7287 78.2454 27.8632 82.2161C29.9259 89.6247 31.2151 96.7066 33.1231 103.943C36.5609 116.44 39.7581 133.595 29.1524 143.599ZM33.5528 146.624C42.8521 142.481 60.9696 143.341 71.1284 145.146L105.61 153.775C99.0608 154.634 76.2164 154.72 68.3781 154.634C63.462 154.548 36.389 148.601 33.5528 146.624ZM32.2464 148.687C38.6408 149.632 51.9968 154.119 65.6106 156.009C69.4095 156.525 84.5875 155.923 88.9708 155.494C93.4572 154.978 95.537 156.181 100.625 155.58C104.665 155.064 120.014 155.923 123.555 157.745L97.5138 165.24C86.1346 168.506 61.0555 168.867 51.3952 163.521C44.8461 159.808 36.3031 155.58 32.2464 148.687ZM60.2648 108.086C73.8958 94.197 106.83 90.8451 123.985 94.4548C120.1 96.3628 95.3652 104.201 90.9647 105.147C83.6421 106.608 66.6592 110.922 60.2648 108.086ZM69.6673 52.9945C69.0657 56.3636 67.8624 59.4576 67.1749 62.7408C66.4701 65.8348 65.8685 69.1179 65.2669 72.298L61.4852 91.5327C58.7178 86.7025 56.0535 74.8935 56.2253 69.2898C56.5691 55.401 61.4852 43.592 69.7532 32.4706C75.9585 24.1166 76.4742 22.8274 84.4156 16.1752C83.1952 21.5211 73.2942 32.3846 69.6673 52.9945ZM87.8535 29.9781C85.9627 36.871 83.6421 43.8498 82.1638 50.8458C79.5855 62.9986 73.8099 82.6459 63.0323 90.0716L72.4348 47.6486C75.3569 37.2148 84.1578 14.4563 94.0588 9.0245C94.0588 11.4482 88.9708 26.3512 87.8535 29.9781ZM61.4852 110.492C65.4388 109.461 68.7219 111.782 82.5076 108.516C90.0193 106.711 96.9981 105.318 104.235 102.912C111.746 100.402 118.897 97.3942 126.564 95.7612C131.136 94.7986 143.289 91.8765 147.345 93.0797C124.845 104.029 117.694 115.408 101.656 120.325C95.623 122.129 86.1346 122.817 80.1011 120.926C74.4115 119.207 65.095 115.323 61.4852 110.492Z" fill="#B65145"/>
</g>
<path fill-rule="evenodd" clip-rule="evenodd" d="M91.9092 111.352C97.255 110.75 100.882 109.203 102.859 110.32C100.624 111.695 100.005 111.781 97.4269 112.297C94.5735 112.916 93.4562 112.572 92.5108 114.119C96.4815 113.26 100.091 113.432 103.718 111.352C103.632 111.18 103.374 110.578 103.374 110.492C103.288 110.406 103.202 109.976 103.202 109.891L103.117 109.117C105.007 108.429 106.572 108.515 107.345 107.14C105.265 105.662 101.741 109.203 94.9345 109.891C93.1984 110.062 91.9092 109.805 91.9092 111.352Z" fill="#B65145"/>
<path fill-rule="evenodd" clip-rule="evenodd" d="M10.3652 204.723C12.256 206.098 14.1469 205.497 16.3127 205.239C18.2035 205.067 21.6585 205.583 22.4321 204.122C21.3835 203.262 22.7758 203.262 16.7424 204.294C14.0609 204.723 12.8577 204.637 10.3652 204.723Z" fill="#B65145"/>
<path fill-rule="evenodd" clip-rule="evenodd" d="M7.59668 202.833C9.40154 203.435 16.3976 203.005 17.7727 202.214C16.3116 200.581 15.349 201.527 13.1144 201.956C11.3095 202.3 9.40154 202.575 7.59668 202.833Z" fill="#B65145"/>
<path fill-rule="evenodd" clip-rule="evenodd" d="M24.0664 102.998C25.5275 103.256 28.2949 102.568 28.9825 101.365L28.7247 100.402C27.2636 100.66 24.8399 101.966 24.0664 102.998Z" fill="#B65145"/>
<path fill-rule="evenodd" clip-rule="evenodd" d="M24.7529 106.178L29.2393 104.115C28.208 103.084 28.4658 103.342 27.0735 104.029C25.2686 104.803 24.8389 104.717 24.7529 106.178Z" fill="#B65145"/>
</svg>
